<svg xmlns="http://www.w3.org/2000/svg" xmlns:xlink="http://www.w3.org/1999/xlink" xmlns:lucid="lucid" width="1427" height="578"><g transform="translate(1137 -5342)" lucid:page-tab-id="t1C~th~9HsF3"><path d="M71.68 5664.43s-6.42 6.3-24.82 6.3-24.8-6.3-24.8-6.3v-166.67s.1-8.95 24.8-8.95 24.82 8.96 24.82 8.96v166.67z" stroke="#3a414a" stroke-width="2" fill="#fff" fill-opacity=".6"/><path d="M32.88 5508.95h38.8m-37.64-3.86v16.67m26.8 6.52h-38.8m37.65-3.88v16.7m-26.82 6.7h38.8m-37.64-4.07v16.9m26.8 6.3h-38.8m37.65-3.87v16.7m-26.82 7.1h38.8m-37.64-3.85v16.68m26.8 6.53h-38.8m37.65-3.87v16.7m-26.82 6.5h38.8m-37.64-3.87v16.68m26.8 6.3h-38.8m37.65-3.86v16.9M47.8 5488.8v-5.18a5.2 5.2 0 0 1 5.2-5.2h65.67a6 6 0 0 1 6 6v20.16a6 6 0 0 1-6 6H91.55M46.86 5670.12v5.3a5.3 5.3 0 0 0 5.3 5.28h65.56a6 6 0 0 0 6-6v-20.15a6 6 0 0 0-6-6H90.6" stroke="#3a414a" stroke-width="2" fill="none"/><path d="M91.76 5650.18l-4.73-1.63 4.73-1.83zM92.8 5512.2l-4.72-1.62 4.73-1.63z" stroke="#3a414a" stroke-width="2" fill="#3a414a"/><path d="M71.68 5497.76H22.05m49.63 166.67H22.05" stroke="#3a414a" stroke-width="2" fill="none"/><path d="M160.76 5436.72l1.06.26 1.02.42.93.57.83.7.7.84.58.95.42 1 .26 1.07.08 1.06v42.93l-.08 1.06-.26 1.07-.42 1-.57.94-.7.84-.83.72-.94.57-1 .4-1.07.26-1.05.1h-33.03v-1.96h32.96l.82-.07.77-.18.73-.3.67-.42.6-.5.5-.6.42-.68.3-.73.2-.76.05-.83v-42.78l-.07-.82-.2-.77-.3-.73-.4-.67-.5-.6-.6-.5-.68-.42-.73-.3-.77-.2-.82-.05H6.3v-1.96h153.4zm-280.8 1.87h-63.61l-.04.02-.02.02-.03.02-.02.03-.02.02v.07l-.02.1-1.94-.15.02-.27.08-.33.13-.32.18-.3.22-.25.26-.22.3-.18.3-.14.35-.08.3-.02h63.6z" stroke="#3a414a" stroke-width=".05" fill="#3a414a"/><path d="M126.7 5493.45h-1.03v-1.95h1.02zm-3.03 0h-1v-1.95h1z" fill="#3a414a"/><path stroke="#3a414a" stroke-width=".05" fill="#3a414a"/><path d="M-183.82 5439.83h-1.95v-1.03h1.95z" stroke="#3a414a" stroke-width=".05" fill="#3a414a"/><use xlink:href="#a" transform="matrix(1,0,0,1,-120.02663555944376,5426.9486927126645) translate(0.005000000000002558 14.222222222222223)"/><use xlink:href="#b" transform="matrix(1,0,0,1,-120.02663555944376,5426.9486927126645) translate(68.05438271604939 14.222222222222223)"/><path d="M114.4 5680.65c0 8.58-7.64 15.5-17.03 15.5-9.4 0-16.97-6.92-16.97-15.5 0-8.53 7.58-15.44 16.97-15.44 9.4 0 17.02 6.92 17.02 15.45z" stroke="#3a414a" stroke-width="2" fill="#fad6d8"/><path d="M121.55 5658.7l-48.3 47.2" stroke="#3a414a" stroke-width="2" fill="none"/><path d="M69.66 5709.17l2.28-6.97 5.24 4.44z" stroke="#3a414a" stroke-width="2" fill="#3a414a"/><path d="M80.4 5681.5h3.58l5.35-8.16 12.56 16.3 8.9-8.13h3.6" stroke="#3a414a" stroke-width="2" fill="none"/><path d="M115.5 5477.2c0 8.5-7.6 15.43-16.96 15.43-9.4 0-17.02-6.92-17.02-15.44 0-8.54 7.63-15.46 17.02-15.46 9.34 0 16.97 6.92 16.97 15.45z" stroke="#3a414a" stroke-width="2" fill="#cfecf0"/><path d="M122.67 5455.23l-48.3 47.2" stroke="#3a414a" stroke-width="2" fill="none"/><path d="M126.25 5451.95l-2.28 6.97-5.24-4.44z" stroke="#3a414a" stroke-width="2" fill="#3a414a"/><path d="M81.52 5478h3.58l5.35-8.13 12.56 16.25 8.93-8.13h3.58" stroke="#3a414a" stroke-width="2" fill="none"/><path d="M74.36 5557.4a6 6 0 0 1 6-6h95.5a6 6 0 0 1 6 6v48a6 6 0 0 1-6 6h-95.5a6 6 0 0 1-6-6z" fill="none"/><use xlink:href="#c" transform="matrix(1,0,0,1,74.36282430553399,5551.389075261138) translate(3.5679012345679126 34.44444444444444)"/><path d="M-912 5526.64v112.5h100v-112.5l-37.5-22.5v-15h-25v15z" stroke="#000" stroke-width="2" fill="#fff"/><path d="M-862 5487.14v-28.95a6 6 0 0 1 6-6h12" stroke="#3a414a" stroke-width="2" fill="none"/><path d="M-861.02 5488.14H-863v-1.03h1.96z" stroke="#3a414a" stroke-width=".05" fill="#3a414a"/><path d="M-830 5452.2l-13 7.5v-15z" stroke="#3a414a" stroke-width="2" fill="#fff"/><path d="M-888 5536.3v65.37h52v-65.38z" fill-opacity="0"/><path d="M-888 5536.3v65.37" stroke="#000" fill="url(#d)"/><path d="M-836 5536.3v65.37" stroke="#000" fill="url(#e)"/><path d="M-380.38 5543.98v105h132.76v-105l-49.8-21v-14h-33.18v14z" stroke="#000" stroke-width="2" fill="#fff"/><path d="M-399.9 5577.75h-15.6" stroke="#3a414a" stroke-width="2" fill="none"/><path d="M-384.62 5577.75l-14.26 4.63v-9.27z" stroke="#3a414a" stroke-width="2" fill="#3a414a"/><path d="M-428.1 5577.75l7.08 7.07 7.07-7.07-7.07-7.07z" stroke="#3a414a" stroke-width="2" fill="#fff"/><path d="M-491 5572.1a6 6 0 0 1 6-6h49.5a6 6 0 0 1 6 6v16.64a6 6 0 0 1-6 6H-485a6 6 0 0 1-6-6z" fill="none"/><use xlink:href="#f" transform="matrix(1,0,0,1,-491.0022250853408,5566.093564125888) translate(18.833333333333336 18.5)"/><path d="M-245.62 5578.98h81.1" stroke="#3a414a" stroke-width="2" fill="none"/><path d="M-245.6 5579.96h-1.02V5578h1.03z" stroke="#3a414a" stroke-width=".05" fill="#3a414a"/><path d="M-149.27 5578.98l-14.26 4.64v-9.27z" stroke="#3a414a" stroke-width="2" fill="#3a414a"/><path d="M-314 5486.76v100.68z" stroke="#3d4752" stroke-width="2" fill-opacity="0"/><path d="M-314 5587.44c-11.12 19.32-28.88 19.32-40 0 11.12-19.44 28.88-19.44 40 0zM-314 5587.44c11.12-19.44 28.88-19.44 40 0-11.12 19.32-28.88 19.32-40 0z" stroke="#3d4752" stroke-width="2" fill="#fff"/><path d="M-773.16 5388.15h-209.7l-.82.06-.76.2-.73.3-.67.4-.6.52-.5.6-.42.67-.3.72-.2.77-.05.8v157.12l.05.83.18.76.3.74.42.67.5.6.6.53.68.4.73.3.76.2.83.06h51.35v1.94h-51.43l-1.05-.1-1.07-.24-1-.42-.94-.57-.82-.7-.7-.84-.6-.93-.4-1-.26-1.08-.1-1.05v-157.26l.1-1.06.25-1.06.42-1.02.57-.93.7-.83.84-.7.94-.6 1-.4 1.08-.26 1.05-.08h209.77zm454.25-1.87l1.05.26 1.02.4.93.6.83.7.7.83.6.94.4 1.02.26 1.06.07 1.06v92.62h-1.95v-92.55l-.06-.8-.2-.78-.3-.73-.4-.68-.5-.6-.6-.5-.68-.42-.73-.3-.77-.2-.82-.05h-212.53v-1.95h212.6z" stroke="#3a414a" stroke-width=".05" fill="#3a414a"/><path d="M-313.03 5486.76h-1.95v-1.03h1.95z" fill="#3a414a"/><path stroke="#3a414a" stroke-width=".05" fill="#3a414a"/><path d="M-916.24 5556.36l-14.26 4.64v-9.27z" fill="#3a414a"/><path d="M-913.08 5556.36l-18.4 5.98v-11.95zm-16.45 3.3l10.14-3.3-10.13-3.3z" stroke="#3a414a" stroke-width=".05" fill="#3a414a"/><use xlink:href="#g" transform="matrix(1,0,0,1,-773.1624380285796,5376.506243228914) translate(0.0049999999999954525 14.222222222222223)"/><use xlink:href="#h" transform="matrix(1,0,0,1,-773.1624380285796,5376.506243228914) translate(85.7827777777778 14.222222222222223)"/><use xlink:href="#i" transform="matrix(1,0,0,1,-773.1624380285796,5376.506243228914) translate(124.30129629629633 14.222222222222223)"/><use xlink:href="#j" transform="matrix(1,0,0,1,-773.1624380285796,5376.506243228914) translate(201.19018518518524 14.222222222222223)"/><path d="M-184.8 5416.3V5579h37.77" stroke="#000" stroke-width="2" fill="none"/><path d="M-184.8 5403.73l-7.06 7.07 7.07 7.07 7.08-7.07z" stroke="#000" stroke-width="2" fill="#fff"/><path d="M-146 5579.96h-1.06V5578h1z" stroke="#000" stroke-width=".05"/><path d="M-227.44 5379.5a6 6 0 0 1 6-6h71.38a6 6 0 0 1 6 6v16.8a6 6 0 0 1-6 6h-71.38a6 6 0 0 1-6-6z" fill="none"/><use xlink:href="#k" transform="matrix(1,0,0,1,-227.43594183997914,5373.498667443116) translate(11.407407407407405 18.055555555555557)"/><path d="M-53.57 5549.9h-80.96c-14.1 0-14.1 58.15 0 58.15h80.96c10.1-1.63 10.1-55.46 0-58.14z" stroke="#3a414a" stroke-width="2" fill="#fff" fill-opacity=".6"/><path d="M-54 5549.9v58.15m-80.53-58.14v58.15M-44.1 5579.36H2.55" stroke="#3a414a" stroke-width="2" fill="none"/><path d="M-44.08 5580.34h-1l-.03-1.95h1.02z" stroke="#3a414a" stroke-width=".05" fill="#3a414a"/><path d="M17.82 5579.36L3.55 5584v-9.27z" stroke="#3a414a" stroke-width="2" fill="#3a414a"/><path d="M-159.8 5514.98a6 6 0 0 1 6-6h115.5a6 6 0 0 1 6 6v23.45a6 6 0 0 1-6 6h-115.5a6 6 0 0 1-6-6z" fill="none"/><use xlink:href="#l" transform="matrix(1,0,0,1,-159.8005152773809,5508.982054779263) translate(3.0740740740740833 22.444444444444443)"/><path d="M-454.1 5481.4a6 6 0 0 1 6-6h95.42a6 6 0 0 1 6 6v43.03a6 6 0 0 1-6 6h-95.4a6 6 0 0 1-6-6z" fill="none"/><use xlink:href="#m" transform="matrix(1,0,0,1,-454.08732402183443,5475.385671674416) translate(13.290123456790127 19.11111111111111)"/><use xlink:href="#n" transform="matrix(1,0,0,1,-454.08732402183443,5475.385671674416) translate(4.70987654320988 45.77777777777777)"/><path d="M-96.05 5610.05v47.24" stroke="#3a414a" stroke-width="2" fill="none"/><path d="M-95.07 5610.08h-1.95v-1.03h1.95z" stroke="#3a414a" stroke-width=".05" fill="#3a414a"/><path d="M-96.05 5672.56l-4.63-14.27h9.27z" stroke="#3a414a" stroke-width="2" fill="#3a414a"/><path d="M-157.6 5675.8h123.1v38.1h-123.1z" fill="none"/><use xlink:href="#o" transform="matrix(1,0,0,1,-157.59630646978349,5675.798275453176) translate(7.086419753086403 14.222222222222223)"/><use xlink:href="#p" transform="matrix(1,0,0,1,-157.59630646978349,5675.798275453176) translate(105.06172839506175 14.222222222222223)"/><use xlink:href="#q" transform="matrix(1,0,0,1,-157.59630646978349,5675.798275453176) translate(27.50617283950617 35.55555555555556)"/><path d="M154.57 5664.68h-28.85" stroke="#3a414a" stroke-width="2" fill="none"/><path d="M177.22 5664.68l-21.65 12.5v-25z" stroke="#3a414a" stroke-width="2" fill="#fff"/><path d="M122.72 5665.66h-1v-1.95h1zm3.03 0h-1.03v-1.95h1.03z" stroke="#3a414a" stroke-width=".05" fill="#3a414a"/><path d="M179.22 5648.98h80v33.82h-80z" fill="none"/><use xlink:href="#r" transform="matrix(1,0,0,1,179.2225122543225,5648.982054779263) translate(9.407407407407408 20.555555555555557)"/><path d="M-984.54 5456.37a6 6 0 0 1 6-6h95.4a6 6 0 0 1 6 6v43.05a6 6 0 0 1-6 6h-95.4a6 6 0 0 1-6-6z" fill="none"/><use xlink:href="#s" transform="matrix(1,0,0,1,-984.5429349188815,5450.371764235478) translate(25.759259259259267 19.11111111111111)"/><use xlink:href="#n" transform="matrix(1,0,0,1,-984.5429349188815,5450.371764235478) translate(4.70987654320988 45.77777777777777)"/><path d="M-810 5564.14h129.5" stroke="#3a414a" stroke-width="2" fill="none"/><path d="M-809.97 5565.1H-811v-1.94h1.03z" stroke="#3a414a" stroke-width=".05" fill="#3a414a"/><path d="M-665.25 5564.14l-14.26 4.63v-9.27z" stroke="#3a414a" stroke-width="2" fill="#3a414a"/><path d="M-931.5 5590.56h-70.06" stroke="#3a414a" stroke-width="2" fill="none"/><path d="M-916.24 5590.56l-14.26 4.63v-9.28z" stroke="#3a414a" stroke-width="2" fill="#3a414a"/><path d="M-1014.15 5590.56l7.07 7.07 7.08-7.07-7.08-7.07z" stroke="#3a414a" stroke-width="2" fill="#fff"/><path d="M-1075.64 5586a6 6 0 0 1 6-6h48.08a6 6 0 0 1 6 6v8.02a6 6 0 0 1-6 6h-48.08a6 6 0 0 1-6-6z" fill="none"/><use xlink:href="#t" transform="matrix(1,0,0,1,-1075.6392247062554,5580) translate(19.166666666666664 14.222222222222223)"/><path d="M-668.27 5617.2l11.96-38.07h35.6l11.72 38.06h-59.3zM-652.27 5549.17L-666 5573.1v6h54.94v-6l-13.74-23.93zM-666 5573.1h54.94" stroke="#000" stroke-width="2" fill="#fff"/><path d="M-666.36 5604.62H-792.5" stroke="#3a414a" stroke-width="2" fill="none"/><path d="M-665.67 5605.6h-.72v-1.96h1.34z" stroke="#3a414a" stroke-width=".05" fill="#3a414a"/><path d="M-807.76 5604.62l14.26-4.64v9.27z" stroke="#3a414a" stroke-width="2" fill="#3a414a"/><path d="M-828 5428.85h148v46.54h-148z" fill="none"/><use xlink:href="#u" transform="matrix(1,0,0,1,-827.9999999999999,5428.85098187483) translate(0 14.222222222222223)"/><use xlink:href="#v" transform="matrix(1,0,0,1,-827.9999999999999,5428.85098187483) translate(29.58024691358025 14.222222222222223)"/><use xlink:href="#w" transform="matrix(1,0,0,1,-827.9999999999999,5428.85098187483) translate(0 35.55555555555556)"/><use xlink:href="#x" transform="matrix(1,0,0,1,-827.9999999999999,5428.85098187483) translate(67.01234567901236 35.55555555555556)"/><path d="M-798.64 5585.84h136v31.35h-136z" fill="none"/><use xlink:href="#y" transform="matrix(1,0,0,1,-798.6411523972107,5585.840218399235) translate(34.00617283950617 14.222222222222223)"/><use xlink:href="#z" transform="matrix(1,0,0,1,-798.6411523972107,5585.840218399235) translate(40.40123456790123 35.55555555555556)"/><path d="M-760 5523.55a6 6 0 0 1 6-6h95.5a6 6 0 0 1 6 6v27.78a6 6 0 0 1-6 6H-754a6 6 0 0 1-6-6z" fill="none"/><use xlink:href="#A" transform="matrix(1,0,0,1,-760,5517.54748482676) translate(2.8580246913580396 24.444444444444443)"/><path d="M-638.53 5520.44v26.73" stroke="#3a414a" stroke-width="2" fill="none"/><path d="M-638.53 5497.8l12.5 21.64h-25z" stroke="#3a414a" stroke-width="2" fill="#fff"/><path d="M-637.56 5548.17h-1.95v-1.02h1.94z" stroke="#3a414a" stroke-width=".05" fill="#3a414a"/><path d="M-255.3 5587.83a6 6 0 0 1 6-6h76a6 6 0 0 1 6 6v7.84a6 6 0 0 1-6 6h-76a6 6 0 0 1-6-6z" fill="none"/><use xlink:href="#B" transform="matrix(1,0,0,1,-255.3094847457063,5581.832350648467) translate(23.777777777777775 14.222222222222223)"/><path d="M-931.5 5556.36h-74.5" stroke="#3a414a" stroke-width="2" fill="none"/><path d="M-916.24 5556.36l-14.26 4.64v-9.27z" stroke="#3a414a" stroke-width="2" fill="#3a414a"/><path d="M-1018.6 5556.36l7.1 7.07 7.06-7.07-7.07-7.07z" stroke="#3a414a" stroke-width="2" fill="#fff"/><path d="M-1120 5553.17a6 6 0 0 1 6-6h88a6 6 0 0 1 6 6v8.03a6 6 0 0 1-6 6h-88a6 6 0 0 1-6-6z" fill="none"/><use xlink:href="#C" transform="matrix(1,0,0,1,-1120,5547.172909895581) translate(15.975308641975303 14.222222222222223)"/><use xlink:href="#D" transform="matrix(1,0,0,1,-1120,5547.172909895581) translate(55.382716049382715 14.222222222222223)"/><path d="M-521.64 5483.55" stroke="#3a414a" stroke-width="4" fill="none"/><path d="M-754.25 5723.05v14.15a6 6 0 0 1-6 6h-18.9" stroke="#60c1cf" stroke-width="2" fill="none"/><path d="M-753.27 5723.08h-1.95v-1.03h1.95z" stroke="#60c1cf" stroke-width=".05" fill="#60c1cf"/><path d="M-794.4 5743.2l14.26-4.63v9.27z" stroke="#60c1cf" stroke-width="2" fill="#60c1cf"/><path d="M-892.13 5767.08v64.22h81.1v-64.22l-30.4-12.85v-8.56h-20.3v8.56z" stroke="#60c1cf" stroke-width="2" fill="#fff"/><path d="M-851.58 5745.67v50.17z" stroke="#60c1cf" stroke-width="2" fill-opacity="0"/><path d="M-851.58 5795.84c-6.8 9.63-17.64 9.63-24.43 0 6.78-9.7 17.63-9.7 24.42 0zM-851.58 5795.84c6.8-9.7 17.64-9.7 24.43 0-6.8 9.63-17.64 9.63-24.43 0z" stroke="#60c1cf" stroke-width="2" fill="#fff"/><path d="M-1073.73 5729.34h275.1v114.2h-275.1z" fill-opacity="0"/><path d="M-1061.6 5729.34h8.1m8.1 0h8.08m8.1 0h8.08m8.1 0h8.08m8.1 0h8.1m8.08 0h8.1m8.08 0h8.1m8.08 0h8.1m8.08 0h8.1m8.08 0h8.1m8.08 0h8.1m8.1 0h8.08m8.1 0h8.08m8.1 0h8.08m8.1 0h8.08m8.1 0h8.08m8.1 0h4.04v4.08m0 8.15v8.16m0 8.16v8.15m0 8.16v8.16m0 8.16v8.16m0 8.16v8.16m0 8.15v8.16m0 8.17v4.08h-4.05m-8.08 0h-8.1m-8.08 0h-8.1m-8.08 0h-8.1m-8.08 0h-8.1m-8.08 0h-8.1m-8.08 0h-8.1m-8.1 0h-8.08m-8.1 0h-8.08m-8.1 0h-8.08m-8.1 0h-8.08m-8.1 0h-8.08m-8.1 0h-8.1m-8.08 0h-8.1m-8.08 0h-8.1m-8.08 0h-8.1m-8.08 0h-8.1m-8.08 0h-4.05v-4.08m0-8.16v-8.15m0-8.15v-8.16m0-8.16v-8.16m0-8.16v-8.15m0-8.15v-8.16m0-8.17v-8.15m0-8.16v-4.08h4.05" stroke="#60c1cf" stroke-width="2" fill="none"/><path d="M-1067.9 5776.98v38.53h44.25V5777l-16.6-7.7v-5.14h-11.05v5.13z" stroke="#60c1cf" stroke-width="2" fill="#fff"/><path d="M-1045.77 5764.14v30.1z" stroke="#60c1cf" stroke-width="2" fill-opacity="0"/><path d="M-1045.77 5794.24c-3.7 5.77-9.62 5.77-13.33 0 3.7-5.8 9.62-5.8 13.33 0zM-1045.77 5794.24c3.7-5.8 9.62-5.8 13.33 0-3.7 5.77-9.63 5.77-13.33 0zM-987.9 5771.94v49.62h60v-49.62l-22.5-9.92v-6.6h-15v6.6z" stroke="#60c1cf" stroke-width="2" fill="#fff"/><path d="M-957.9 5755.4v38.77z" stroke="#60c1cf" stroke-width="2" fill-opacity="0"/><path d="M-957.9 5794.17c-5.02 7.44-13.04 7.44-18.07 0 5.03-7.5 13.05-7.5 18.08 0z" stroke="#60c1cf" stroke-width="2" fill="#fff"/><path d="M-957.9 5794.17c5.03-7.5 13.06-7.5 18.1 0-5.04 7.44-13.07 7.44-18.1 0z" stroke="#60c1cf" stroke-width="2" fill="#fff"/><path d="M-1021.65 5789.82h14.26" stroke="#60c1cf" stroke-width="2" fill="none"/><path d="M-1021.63 5790.8h-1.02v-1.95h1.02z" stroke="#60c1cf" stroke-width=".05" fill="#60c1cf"/><path d="M-992.13 5789.82l-14.26 4.64v-9.27z" stroke="#60c1cf" stroke-width="2" fill="#60c1cf"/><path d="M-925.9 5788.48h14.27" stroke="#60c1cf" stroke-width="2" fill="none"/><path d="M-925.86 5789.46h-1.03v-1.95h1.04z" stroke="#60c1cf" stroke-width=".05" fill="#60c1cf"/><path d="M-896.37 5788.48l-14.26 4.64v-9.27z" stroke="#60c1cf" stroke-width="2" fill="#60c1cf"/><path d="M-1050.65 5860a6 6 0 0 1 6-6h227.62a6 6 0 0 1 6 6v32.22a6 6 0 0 1-6 6h-227.62a6 6 0 0 1-6-6z" fill="none"/><use xlink:href="#E" transform="matrix(1,0,0,1,-1050.649328585038,5853.988177350839) translate(4.2283950617284205 26.944444444444443)"/><use xlink:href="#F" transform="matrix(1,0,0,1,-1050.649328585038,5853.988177350839) translate(131.01851851851853 26.944444444444443)"/><use xlink:href="#G" transform="matrix(1,0,0,1,-1050.649328585038,5853.988177350839) translate(187.74691358024688 26.944444444444443)"/><path d="M-713.8 5787.42h-82.84v-1.95h82.83zm313.9-147.06H-544.5l-.82.07-.77.18-.74.32-.67.4-.6.52-.52.6-.4.67-.32.74-.18.76-.06.83v135.05l-.1 1.06-.24 1.06-.42 1-.57.94-.72.84-.84.7-.93.58-1 .42-1.07.26-1.05.08h-110.62v-1.95h110.54l.83-.07.76-.18.72-.3.67-.4.6-.53.5-.6.42-.68.3-.73.18-.77.07-.82v-135.05l.08-1.05.25-1.07.42-1 .58-.94.7-.84.84-.72.93-.57 1-.42 1.08-.25 1.05-.1 144.72.02z" stroke="#60c1cf" stroke-width=".05" fill="#60c1cf"/><path d="M-384.62 5639.4l-14.26 4.63v-9.27z" fill="#60c1cf"/><path d="M-381.46 5639.4l-18.4 5.97v-11.96zm-16.45 3.28l10.13-3.3-10.14-3.28z" stroke="#60c1cf" stroke-width=".05" fill="#60c1cf"/><path d="M-796.62 5787.42h-1.02v-1.95h1.02z" fill="#60c1cf"/><path stroke="#60c1cf" stroke-width=".05" fill="#60c1cf"/><use xlink:href="#H" transform="matrix(1,0,0,1,-713.8088739398758,5774.443381107379) translate(0.004999999999999005 16)"/><path d="M-491.77 5714.91v12.44" stroke="#ed586f" stroke-width="2" fill="none"/><path d="M-491.77 5702.33l-7.07 7.07 7.07 7.07 7.07-7.07z" stroke="#ed586f" stroke-width="2" fill="#fff"/><path d="M-490.8 5728.34h-1.95v-1.03h1.95z" stroke="#ed586f" stroke-width=".05" fill="#ed586f"/><path d="M-338.4 5767.08v64.22h81.1v-64.22l-30.42-12.85v-8.56H-308v8.56z" stroke="#ed586f" stroke-width="2" fill="#fff"/><path d="M-297.85 5745.67v50.17z" stroke="#ed586f" stroke-width="2" fill-opacity="0"/><path d="M-297.85 5795.84c-6.8 9.63-17.64 9.63-24.44 0 6.8-9.7 17.66-9.7 24.45 0z" stroke="#ed586f" stroke-width="2" fill="#fff"/><path d="M-297.85 5795.84c6.8-9.7 17.64-9.7 24.43 0-6.8 9.63-17.64 9.63-24.43 0z" stroke="#ed586f" stroke-width="2" fill="#fff"/><path d="M-520 5729.34h275.1v114.2H-520z" fill-opacity="0"/><path d="M-507.86 5729.34h8.1m8.08 0h8.1m8.08 0h8.1m8.08 0h8.1m8.08 0h8.1m8.08 0h8.1m8.1 0h8.08m8.1 0h8.08m8.1 0h8.08m8.1 0h8.08m8.1 0h8.08m8.1 0h8.08m8.1 0h8.1m8.08 0h8.1m8.08 0h8.1m8.08 0h8.1m8.08 0h4.05v4.08m0 8.15v8.16m0 8.16v8.15m0 8.16v8.16m0 8.16v8.16m0 8.16v8.16m0 8.15v8.16m0 8.17v4.08h-4.06m-8.1 0h-8.08m-8.1 0h-8.08m-8.1 0h-8.08m-8.1 0h-8.08m-8.1 0h-8.1m-8.08 0h-8.1m-8.08 0h-8.1m-8.08 0h-8.1m-8.08 0h-8.1m-8.08 0h-8.1m-8.1 0h-8.08m-8.1 0h-8.08m-8.1 0h-8.08m-8.1 0h-8.08m-8.1 0h-8.08m-8.1 0h-8.08m-8.1 0H-520v-4.08m0-8.16v-8.15m0-8.15v-8.16m0-8.16v-8.16m0-8.16v-8.15m0-8.15v-8.16m0-8.17v-8.15m0-8.16v-4.08h4.04" stroke="#ed586f" stroke-width="2" fill="none"/><path d="M-514.16 5776.98v38.53h44.24V5777l-16.6-7.7v-5.14h-11.05v5.13z" stroke="#ed586f" stroke-width="2" fill="#fff"/><path d="M-492.04 5764.14v30.1z" stroke="#ed586f" stroke-width="2" fill-opacity="0"/><path d="M-492.04 5794.24c-3.7 5.77-9.63 5.77-13.33 0 3.7-5.8 9.62-5.8 13.33 0z" stroke="#ed586f" stroke-width="2" fill="#fff"/><path d="M-492.04 5794.24c3.7-5.8 9.62-5.8 13.33 0-3.72 5.77-9.64 5.77-13.34 0zM-434.16 5771.94v49.62h60v-49.62l-22.5-9.92v-6.6h-15v6.6z" stroke="#ed586f" stroke-width="2" fill="#fff"/><path d="M-404.16 5755.4v38.77z" stroke="#ed586f" stroke-width="2" fill-opacity="0"/><path d="M-404.16 5794.17c-5.03 7.44-13.05 7.44-18.08 0 5.03-7.5 13.05-7.5 18.08 0zM-404.16 5794.17c5.02-7.5 13.05-7.5 18.08 0-5.03 7.44-13.06 7.44-18.08 0z" stroke="#ed586f" stroke-width="2" fill="#fff"/><path d="M-467.92 5789.82h14.26" stroke="#ed586f" stroke-width="2" fill="none"/><path d="M-467.9 5790.8h-1.02v-1.95h1.02z" stroke="#ed586f" stroke-width=".05" fill="#ed586f"/><path d="M-438.4 5789.82l-14.26 4.64v-9.27z" stroke="#ed586f" stroke-width="2" fill="#ed586f"/><path d="M-372.16 5788.48h14.26" stroke="#ed586f" stroke-width="2" fill="none"/><path d="M-372.14 5789.46h-1.02v-1.95h1.02z" stroke="#ed586f" stroke-width=".05" fill="#ed586f"/><path d="M-342.64 5788.48l-14.26 4.64v-9.27z" stroke="#ed586f" stroke-width="2" fill="#ed586f"/><path d="M-732.88 5737.16l.06.83.2.76.3.72.4.68.5.6.6.5.68.42.73.3.76.18.82.07h29.7v1.95h-29.77l-1.05-.08-1.06-.26-1.02-.42-.94-.57-.83-.7-.7-.84-.57-.93-.42-1-.25-1.07-.08-1.06v-14.2h1.95zm333-96.8h-144.64l-.82.07-.77.18-.74.32-.67.4-.6.52-.52.6-.4.67-.32.74-.18.76-.06.83v91.8l-.1 1.07-.24 1.06-.42 1-.57.95-.72.84-.84.7-.93.58-1 .42-1.07.26-1.05.08h-31.8v-1.95h31.72l.83-.07.76-.18.72-.3.67-.4.6-.52.5-.6.42-.68.3-.72.18-.77.07-.84v-91.8l.08-1.06.25-1.07.42-1 .58-.94.7-.84.84-.72.93-.57 1-.42 1.08-.25 1.05-.1 144.72.02z" stroke="#60c1cf" stroke-width=".05" fill="#60c1cf"/><path d="M-384.62 5639.4l-14.26 4.63v-9.27z" fill="#60c1cf"/><path d="M-381.46 5639.4l-18.4 5.97v-11.96zm-16.45 3.28l10.13-3.3-10.14-3.28z" stroke="#60c1cf" stroke-width=".05" fill="#60c1cf"/><path d="M-732.88 5723.08h-1.95v-1.03h1.95z" fill="#60c1cf"/><path stroke="#60c1cf" stroke-width=".05" fill="#60c1cf"/><use xlink:href="#I" transform="matrix(1,0,0,1,-698.1078870136605,5731.203530301792) translate(0.005000000000002558 16)"/><use xlink:href="#J" transform="matrix(1,0,0,1,-698.1078870136605,5731.203530301792) translate(56.505 16)"/><path d="M-505.37 5855.2a6 6 0 0 1 6-6h231a6 6 0 0 1 6 6v27.43a6 6 0 0 1-6 6h-231a6 6 0 0 1-6-6z" fill="none"/><use xlink:href="#K" transform="matrix(1,0,0,1,-505.37137505211535,5849.1926749371105) translate(2.493827160493865 24.444444444444443)"/><use xlink:href="#L" transform="matrix(1,0,0,1,-505.37137505211535,5849.1926749371105) translate(136.75308641975306 24.444444444444443)"/><use xlink:href="#M" transform="matrix(1,0,0,1,-505.37137505211535,5849.1926749371105) translate(193.48148148148147 24.444444444444443)"/><path d="M-159.8 5764.14h303.67v60.1H-159.8z" fill-opacity="0"/><path d="M-149.68 5764.14h10.12m5.06 0h10.13m5.06 0h10.1m5.07 0H-94m5.06 0h10.12m5.06 0h10.12m5.06 0h10.13m5.06 0h10.13m5.06 0h10.1m5.07 0H-2.9m5.06 0h10.12m5.06 0h10.12m5.06 0h10.13m5.06 0h10.13m5.06 0H73m5.08 0H88.2m5.06 0h10.12m5.06 0h10.12m5.06 0h10.13m5.06 0h5.07v5m0 5v10.03m0 5v10.03m0 5v10.02m0 5v5.02h-5.06m-5.05 0h-10.13m-5.06 0h-10.12m-5.06 0H93.26m-5.06 0H78.07m-5.06 0H62.9m-5.07 0H47.7m-5.05 0H32.52m-5.06 0H17.34m-5.06 0H2.16m-5.06 0h-10.13m-5.06 0h-10.1m-5.07 0H-43.4m-5.05 0h-10.13m-5.06 0h-10.12m-5.06 0h-10.12m-5.06 0h-10.13m-5.06 0h-10.1m-5.07 0h-10.13m-5.06 0h-10.12m-5.06 0h-5.06v-5m0-5.02v-10.02m0-5v-10.02m0-5v-10.03m0-5v-5h5.06" stroke="#3d4752" fill="none"/><path d="M-137.2 5782.1h43.73" stroke="#494949" stroke-width="2" fill="none"/><path d="M-149.78 5782.1l7.08 7.07 7.07-7.07-7.07-7.07z" stroke="#494949" stroke-width="2" fill="#fff"/><path d="M-78.2 5782.1l-14.27 4.64v-9.27z" stroke="#494949" stroke-width="2" fill="#494949"/><path d="M-43.28 5782.2h54.1M-43.26 5782.2h-1.02" stroke="#494949" stroke-width="2" fill="none"/><path d="M26.07 5782.2l-14.26 4.62v-9.27z" stroke="#494949" stroke-width="2" fill="#494949"/><path d="M46.73 5781.6h64.13M46.75 5781.6h-1.02" stroke="#494949" stroke-width="2" fill="none"/><path d="M124.86 5781.6l-13 7.5v-15z" stroke="#494949" stroke-width="2" fill="#fff"/><path d="M-148.14 5788.47h74.97v42.32h-74.97z" fill="none"/><use xlink:href="#N" transform="matrix(1,0,0,1,-148.142047001025,5788.466355504213) translate(12.222222222222225 25.944444444444443)"/><path d="M-59.6 5787.97h96.5v42.32h-96.5z" fill="none"/><use xlink:href="#O" transform="matrix(1,0,0,1,-59.60754114260939,5787.967753364525) translate(12.759259259259267 25.944444444444443)"/><path d="M25.73 5787.97h118.14v42.32H25.73z" fill="none"/><use xlink:href="#P" transform="matrix(1,0,0,1,25.726239874608837,5787.967753364525) translate(21.259259259259267 25.944444444444443)"/><path d="M-299.25 5727.34v-58.86" stroke="#ed586f" stroke-width="2" fill="none"/><path d="M-298.27 5728.34h-1.95v-1.03h1.95z" stroke="#ed586f" stroke-width=".05" fill="#ed586f"/><path d="M-299.25 5653.22l4.64 14.26h-9.28z" stroke="#ed586f" stroke-width="2" fill="#ed586f"/><use xlink:href="#Q" transform="matrix(1,0,0,1,-291.24644493224696,5677.160260638613) translate(0.004999999999999005 16)"/><path d="M-553.1 5686a6 6 0 0 1 6-6h114.42a6 6 0 0 1 6 6v8.9a6 6 0 0 1-6 6.02H-547.1a6 6 0 0 1-6-6z" fill="none"/><use xlink:href="#R" transform="matrix(1,0,0,1,-553.1101471885504,5680) translate(30.932098765432094 14.222222222222223)"/><path d="M-677.95 5460h78.83v35.8h-78.83z" fill="none"/><use xlink:href="#S" transform="matrix(1,0,0,1,-677.9483593227787,5460) translate(3.055555555555557 21.555555555555557)"/><path d="M-715.4 5721.05l-27.1-44.2-27.06 44.2h54.16z" stroke="#60c1cf" stroke-width="2" fill="#fff" fill-opacity=".6"/><path d="M-741.7 5657.77v-4.54a6 6 0 0 1 6-6h77.1a6 6 0 0 0 6-6v-22.04" stroke="#60c1cf" stroke-width="2" fill="none"/><path d="M-741.7 5673.03l-4.63-14.26h9.26z" stroke="#60c1cf" stroke-width="2" fill="#60c1cf"/><path d="M-651.6 5619.22h-1.96v-1.03h1.95z" stroke="#60c1cf" stroke-width=".05" fill="#60c1cf"/><path d="M-1002.75 5624.82h71.25" stroke="#494949" stroke-width="2" fill="none"/><path d="M-1015.34 5624.82l7.07 7.07 7.07-7.08-7.07-7.07z" stroke="#494949" stroke-width="2" fill="#fff"/><path d="M-916.24 5624.82l-14.26 4.63v-9.27z" stroke="#494949" stroke-width="2" fill="#494949"/><path d="M-1105.2 5600.02h88.45v51.72h-88.46z" fill="#fff" fill-opacity="0"/><use xlink:href="#T" transform="matrix(1,0,0,1,-1100.2107948563014,5605.024954887545) translate(15.351851851851851 24.72222222222222)"/><path d="M-415.5 5549.65h15.62" stroke="#000" stroke-width="2" fill="none"/><path d="M-428.1 5549.65l7.08 7.07 7.07-7.07-7.07-7.07z" stroke="#000" stroke-width="2" fill="#fff"/><path d="M-384.62 5549.65l-14.26 4.64V5545z" stroke="#000" stroke-width="2"/><path d="M-580 5546a6 6 0 0 1 6-6h138.5a6 6 0 0 1 6 6v10.76a6 6 0 0 1-6 6H-574a6 6 0 0 1-6-6z" fill="none"/><g><use xlink:href="#U" transform="matrix(1,0,0,1,-580,5540) translate(15.111111111111107 16)"/><use xlink:href="#V" transform="matrix(1,0,0,1,-580,5540) translate(87.11111111111111 16)"/></g><path d="M-1025.77 5714.74v12.6" stroke="#60c1cf" stroke-width="2" fill="none"/><path d="M-1025.77 5702.16l-7.07 7.07 7.07 7.07 7.07-7.07z" stroke="#60c1cf" stroke-width="2" fill="#fff"/><path d="M-1024.8 5728.34h-1.95v-1.03h1.95z" stroke="#60c1cf" stroke-width=".05" fill="#60c1cf"/><path d="M-1060 5674.85h68.46v25.9H-1060z" fill="#fff" fill-opacity="0"/><g><use xlink:href="#W" transform="matrix(1,0,0,1,-1055,5679.851143219712) translate(5.351851851851851 14.222222222222223)"/></g><path d="M-551.04 5608.46h-58.88v-1.95h58.88zm151.15 0h-41.36v-1.95h41.38z" stroke="#ed586f" stroke-width=".05" fill="#ed586f"/><path d="M-609.9 5608.46h-.72l-.6-1.95h1.32z" fill="#ed586f"/><path stroke="#ed586f" stroke-width=".05" fill="#ed586f"/><path d="M-384.62 5607.48l-14.26 4.64v-9.27z" fill="#ed586f"/><path d="M-381.46 5607.48l-18.4 5.98v-11.95zm-16.45 3.3l10.13-3.3-10.14-3.3z" stroke="#ed586f" stroke-width=".05" fill="#ed586f"/><g><use xlink:href="#X" transform="matrix(1,0,0,1,-551.0414301886351,5595.48401420131) translate(0.005000000000002558 16)"/><use xlink:href="#Y" transform="matrix(1,0,0,1,-551.0414301886351,5595.48401420131) translate(56.505 16)"/></g><path d="M-411.77 5716.03v12.42" stroke="#ed586f" stroke-width="2" fill="none"/><path d="M-411.77 5703.44l-7.07 7.07 7.07 7.08 7.07-7.07z" stroke="#ed586f" stroke-width="2" fill="#fff"/><path d="M-411.77 5728.43v1.02" stroke="#ed586f" stroke-width="2" fill="none"/><path d="M-473.1 5687.1a6 6 0 0 1 6-6h114.42a6 6 0 0 1 6 6v8.93a6 6 0 0 1-6 6H-467.1a6 6 0 0 1-6-6z" fill="none"/><g><use xlink:href="#Z" transform="matrix(1,0,0,1,-473.1101471885504,5681.112467974782) translate(39.35185185185185 14.222222222222223)"/></g><defs><path d="M233-177c-1 41-23 64-60 70L243 0h-38l-65-103H63V0H30v-248c88 3 205-21 203 71zM63-129c60-2 137 13 137-47 0-61-80-42-137-45v92" id="aa"/><path d="M100-194c63 0 86 42 84 106H49c0 40 14 67 53 68 26 1 43-12 49-29l28 8c-11 28-37 45-77 45C44 4 14-33 15-96c1-61 26-98 85-98zm52 81c6-60-76-77-97-28-3 7-6 17-6 28h103" id="ab"/><path d="M96-169c-40 0-48 33-48 73s9 75 48 75c24 0 41-14 43-38l32 2c-6 37-31 61-74 61-59 0-76-41-82-99-10-93 101-131 147-64 4 7 5 14 7 22l-32 3c-4-21-16-35-41-35" id="ac"/><path d="M179-190L93 31C79 59 56 82 12 73V49c39 6 53-20 64-50L1-190h34L92-34l54-156h33" id="ad"/><path d="M24 0v-261h32V0H24" id="ae"/><g id="a"><use transform="matrix(0.04938271604938272,0,0,0.04938271604938272,0,0)" xlink:href="#aa"/><use transform="matrix(0.04938271604938272,0,0,0.04938271604938272,12.790123456790125,0)" xlink:href="#ab"/><use transform="matrix(0.04938271604938272,0,0,0.04938271604938272,22.66666666666667,0)" xlink:href="#ac"/><use transform="matrix(0.04938271604938272,0,0,0.04938271604938272,31.555555555555557,0)" xlink:href="#ad"/><use transform="matrix(0.04938271604938272,0,0,0.04938271604938272,40.44444444444445,0)" xlink:href="#ac"/><use transform="matrix(0.04938271604938272,0,0,0.04938271604938272,49.33333333333334,0)" xlink:href="#ae"/><use transform="matrix(0.04938271604938272,0,0,0.04938271604938272,53.23456790123457,0)" xlink:href="#ab"/></g><path d="M106-169C34-169 62-67 57 0H25v-261h32l-1 103c12-21 28-36 61-36 89 0 53 116 60 194h-32v-121c2-32-8-49-39-48" id="af"/><path d="M141 0L90-78 38 0H4l68-98-65-92h35l48 74 47-74h35l-64 92 68 98h-35" id="ag"/><path d="M141-36C126-15 110 5 73 4 37 3 15-17 15-53c-1-64 63-63 125-63 3-35-9-54-41-54-24 1-41 7-42 31l-33-3c5-37 33-52 76-52 45 0 72 20 72 64v82c-1 20 7 32 28 27v20c-31 9-61-2-59-35zM48-53c0 20 12 33 32 33 41-3 63-29 60-74-43 2-92-5-92 41" id="ah"/><path d="M117-194c89-4 53 116 60 194h-32v-121c0-31-8-49-39-48C34-167 62-67 57 0H25l-1-190h30c1 10-1 24 2 32 11-22 29-35 61-36" id="ai"/><g id="b"><use transform="matrix(0.04938271604938272,0,0,0.04938271604938272,0,0)" xlink:href="#af"/><use transform="matrix(0.04938271604938272,0,0,0.04938271604938272,9.876543209876544,0)" xlink:href="#ab"/><use transform="matrix(0.04938271604938272,0,0,0.04938271604938272,19.75308641975309,0)" xlink:href="#ag"/><use transform="matrix(0.04938271604938272,0,0,0.04938271604938272,28.641975308641978,0)" xlink:href="#ah"/><use transform="matrix(0.04938271604938272,0,0,0.04938271604938272,38.51851851851852,0)" xlink:href="#ai"/><use transform="matrix(0.04938271604938272,0,0,0.04938271604938272,48.39506172839506,0)" xlink:href="#ab"/></g><path fill="#4c535d" d="M30-248c118-7 216 8 213 122C240-48 200 0 122 0H30v-248zM63-27c89 8 146-16 146-99s-60-101-146-95v194" id="aj"/><path fill="#4c535d" d="M24-231v-30h32v30H24zM24 0v-190h32V0H24" id="ak"/><path fill="#4c535d" d="M135-143c-3-34-86-38-87 0 15 53 115 12 119 90S17 21 10-45l28-5c4 36 97 45 98 0-10-56-113-15-118-90-4-57 82-63 122-42 12 7 21 19 24 35" id="al"/><path fill="#4c535d" d="M59-47c-2 24 18 29 38 22v24C64 9 27 4 27-40v-127H5v-23h24l9-43h21v43h35v23H59v120" id="am"/><path fill="#4c535d" d="M24 0v-261h32V0H24" id="an"/><path fill="#4c535d" d="M141-36C126-15 110 5 73 4 37 3 15-17 15-53c-1-64 63-63 125-63 3-35-9-54-41-54-24 1-41 7-42 31l-33-3c5-37 33-52 76-52 45 0 72 20 72 64v82c-1 20 7 32 28 27v20c-31 9-61-2-59-35zM48-53c0 20 12 33 32 33 41-3 63-29 60-74-43 2-92-5-92 41" id="ao"/><path fill="#4c535d" d="M100-194c62-1 85 37 85 99 1 63-27 99-86 99S16-35 15-95c0-66 28-99 85-99zM99-20c44 1 53-31 53-75 0-43-8-75-51-75s-53 32-53 75 10 74 51 75" id="ap"/><path fill="#4c535d" d="M117-194c89-4 53 116 60 194h-32v-121c0-31-8-49-39-48C34-167 62-67 57 0H25l-1-190h30c1 10-1 24 2 32 11-22 29-35 61-36" id="aq"/><g id="c"><use transform="matrix(0.061728395061728385,0,0,0.061728395061728385,0,0)" xlink:href="#aj"/><use transform="matrix(0.061728395061728385,0,0,0.061728395061728385,15.987654320987652,0)" xlink:href="#ak"/><use transform="matrix(0.061728395061728385,0,0,0.061728395061728385,20.864197530864196,0)" xlink:href="#al"/><use transform="matrix(0.061728395061728385,0,0,0.061728395061728385,31.975308641975303,0)" xlink:href="#am"/><use transform="matrix(0.061728395061728385,0,0,0.061728395061728385,38.14814814814814,0)" xlink:href="#ak"/><use transform="matrix(0.061728395061728385,0,0,0.061728395061728385,43.02469135802468,0)" xlink:href="#an"/><use transform="matrix(0.061728395061728385,0,0,0.061728395061728385,47.90123456790123,0)" xlink:href="#an"/><use transform="matrix(0.061728395061728385,0,0,0.061728395061728385,52.77777777777777,0)" xlink:href="#ao"/><use transform="matrix(0.061728395061728385,0,0,0.061728395061728385,65.12345679012344,0)" xlink:href="#am"/><use transform="matrix(0.061728395061728385,0,0,0.061728395061728385,71.29629629629628,0)" xlink:href="#ak"/><use transform="matrix(0.061728395061728385,0,0,0.061728395061728385,76.17283950617282,0)" xlink:href="#ap"/><use transform="matrix(0.061728395061728385,0,0,0.061728395061728385,88.5185185185185,0)" xlink:href="#aq"/></g><linearGradient gradientUnits="userSpaceOnUse" id="d" x1="-888" y1="5536.29" x2="-888" y2="5601.67"><stop offset="0%" stop-color="#fff"/><stop offset="20%" stop-color="#fff"/><stop offset="100%" stop-color="#ccc"/></linearGradient><linearGradient gradientUnits="userSpaceOnUse" id="e" x1="-888" y1="5536.29" x2="-888" y2="5601.67"><stop offset="0%" stop-color="#fff"/><stop offset="20%" stop-color="#fff"/><stop offset="100%" stop-color="#ccc"/></linearGradient><path d="M205 0l-28-72H64L36 0H1l101-248h38L239 0h-34zm-38-99l-47-123c-12 45-31 82-46 123h93" id="ar"/><path d="M24-231v-30h32v30H24zM24 0v-190h32V0H24" id="as"/><path d="M114-163C36-179 61-72 57 0H25l-1-190h30c1 12-1 29 2 39 6-27 23-49 58-41v29" id="at"/><g id="f"><use transform="matrix(0.05555555555555555,0,0,0.05555555555555555,0,0)" xlink:href="#ar"/><use transform="matrix(0.05555555555555555,0,0,0.05555555555555555,13.333333333333332,0)" xlink:href="#as"/><use transform="matrix(0.05555555555555555,0,0,0.05555555555555555,17.72222222222222,0)" xlink:href="#at"/></g><path d="M160-131c35 5 61 23 61 61C221 17 115-2 30 0v-248c76 3 177-17 177 60 0 33-19 50-47 57zm-97-11c50-1 110 9 110-42 0-47-63-36-110-37v79zm0 115c55-2 124 14 124-45 0-56-70-42-124-44v89" id="au"/><path d="M100-194c62-1 85 37 85 99 1 63-27 99-86 99S16-35 15-95c0-66 28-99 85-99zM99-20c44 1 53-31 53-75 0-43-8-75-51-75s-53 32-53 75 10 74 51 75" id="av"/><path d="M59-47c-2 24 18 29 38 22v24C64 9 27 4 27-40v-127H5v-23h24l9-43h21v43h35v23H59v120" id="aw"/><g id="g"><use transform="matrix(0.04938271604938272,0,0,0.04938271604938272,0,0)" xlink:href="#au"/><use transform="matrix(0.04938271604938272,0,0,0.04938271604938272,11.851851851851853,0)" xlink:href="#as"/><use transform="matrix(0.04938271604938272,0,0,0.04938271604938272,15.753086419753087,0)" xlink:href="#av"/><use transform="matrix(0.04938271604938272,0,0,0.04938271604938272,25.629629629629633,0)" xlink:href="#at"/><use transform="matrix(0.04938271604938272,0,0,0.04938271604938272,31.506172839506174,0)" xlink:href="#ab"/><use transform="matrix(0.04938271604938272,0,0,0.04938271604938272,41.38271604938272,0)" xlink:href="#ah"/><use transform="matrix(0.04938271604938272,0,0,0.04938271604938272,51.25925925925927,0)" xlink:href="#ac"/><use transform="matrix(0.04938271604938272,0,0,0.04938271604938272,60.14814814814815,0)" xlink:href="#aw"/><use transform="matrix(0.04938271604938272,0,0,0.04938271604938272,65.08641975308643,0)" xlink:href="#av"/><use transform="matrix(0.04938271604938272,0,0,0.04938271604938272,74.96296296296298,0)" xlink:href="#at"/></g><path d="M108 0H70L1-190h34L89-25l56-165h34" id="ax"/><g id="h"><use transform="matrix(0.04938271604938272,0,0,0.04938271604938272,0,0)" xlink:href="#ax"/><use transform="matrix(0.04938271604938272,0,0,0.04938271604938272,8.88888888888889,0)" xlink:href="#ab"/><use transform="matrix(0.04938271604938272,0,0,0.04938271604938272,18.765432098765434,0)" xlink:href="#ai"/><use transform="matrix(0.04938271604938272,0,0,0.04938271604938272,28.641975308641978,0)" xlink:href="#aw"/></g><path d="M87 75C49 33 22-17 22-94c0-76 28-126 65-167h31c-38 41-64 92-64 168S80 34 118 75H87" id="ay"/><path d="M85-194c31 0 48 13 60 33l-1-100h32l1 261h-30c-2-10 0-23-3-31C134-8 116 4 85 4 32 4 16-35 15-94c0-66 23-100 70-100zm9 24c-40 0-46 34-46 75 0 40 6 74 45 74 42 0 51-32 51-76 0-42-9-74-50-73" id="az"/><g id="i"><use transform="matrix(0.04938271604938272,0,0,0.04938271604938272,0,0)" xlink:href="#ay"/><use transform="matrix(0.04938271604938272,0,0,0.04938271604938272,5.8765432098765435,0)" xlink:href="#at"/><use transform="matrix(0.04938271604938272,0,0,0.04938271604938272,11.753086419753087,0)" xlink:href="#ab"/><use transform="matrix(0.04938271604938272,0,0,0.04938271604938272,21.629629629629633,0)" xlink:href="#ac"/><use transform="matrix(0.04938271604938272,0,0,0.04938271604938272,30.518518518518523,0)" xlink:href="#ad"/><use transform="matrix(0.04938271604938272,0,0,0.04938271604938272,39.40740740740741,0)" xlink:href="#ac"/><use transform="matrix(0.04938271604938272,0,0,0.04938271604938272,48.296296296296305,0)" xlink:href="#ae"/><use transform="matrix(0.04938271604938272,0,0,0.04938271604938272,52.19753086419754,0)" xlink:href="#ab"/><use transform="matrix(0.04938271604938272,0,0,0.04938271604938272,62.074074074074076,0)" xlink:href="#az"/></g><path d="M212-179c-10-28-35-45-73-45-59 0-87 40-87 99 0 60 29 101 89 101 43 0 62-24 78-52l27 14C228-24 195 4 139 4 59 4 22-46 18-125c-6-104 99-153 187-111 19 9 31 26 39 46" id="aA"/><path d="M140-251c81 0 123 46 123 126C263-46 219 4 140 4 59 4 17-45 17-125s42-126 123-126zm0 227c63 0 89-41 89-101s-29-99-89-99c-61 0-89 39-89 99S79-25 140-24" id="aB"/><path d="M101-251c82-7 93 87 43 132L82-64C71-53 59-42 53-27h129V0H18c2-99 128-94 128-182 0-28-16-43-45-43s-46 15-49 41l-32-3c6-41 34-60 81-64" id="aC"/><path d="M33-261c38 41 65 92 65 168S71 34 33 75H2C39 34 66-17 66-93S39-220 2-261h31" id="aD"/><g id="j"><use transform="matrix(0.04938271604938272,0,0,0.04938271604938272,0,0)" xlink:href="#aA"/><use transform="matrix(0.04938271604938272,0,0,0.04938271604938272,12.790123456790125,0)" xlink:href="#aB"/><use transform="matrix(0.034567901234567905,0,0,0.034567901234567905,26.61728395061729,2.488888888888889)" xlink:href="#aC"/><use transform="matrix(0.04938271604938272,0,0,0.04938271604938272,33.53086419753087,0)" xlink:href="#aD"/></g><path d="M197 0v-115H63V0H30v-248h33v105h134v-105h34V0h-34" id="aE"/><g id="k"><use transform="matrix(0.04938271604938272,0,0,0.04938271604938272,0,0)" xlink:href="#aE"/><use transform="matrix(0.04938271604938272,0,0,0.04938271604938272,12.790123456790125,0)" xlink:href="#ab"/><use transform="matrix(0.04938271604938272,0,0,0.04938271604938272,22.66666666666667,0)" xlink:href="#ag"/><use transform="matrix(0.04938271604938272,0,0,0.04938271604938272,31.555555555555557,0)" xlink:href="#ah"/><use transform="matrix(0.04938271604938272,0,0,0.04938271604938272,41.4320987654321,0)" xlink:href="#ai"/><use transform="matrix(0.04938271604938272,0,0,0.04938271604938272,51.308641975308646,0)" xlink:href="#ab"/></g><path fill="#4c535d" d="M240 0l2-218c-23 76-54 145-80 218h-23L58-218 59 0H30v-248h44l77 211c21-75 51-140 76-211h43V0h-30" id="aF"/><path fill="#4c535d" d="M141 0L90-78 38 0H4l68-98-65-92h35l48 74 47-74h35l-64 92 68 98h-35" id="aG"/><path fill="#4c535d" d="M100-194c63 0 86 42 84 106H49c0 40 14 67 53 68 26 1 43-12 49-29l28 8c-11 28-37 45-77 45C44 4 14-33 15-96c1-61 26-98 85-98zm52 81c6-60-76-77-97-28-3 7-6 17-6 28h103" id="aH"/><path fill="#4c535d" d="M114-163C36-179 61-72 57 0H25l-1-190h30c1 12-1 29 2 39 6-27 23-49 58-41v29" id="aI"/><path fill="#4c535d" d="M16-82v-28h88v28H16" id="aJ"/><g id="l"><use transform="matrix(0.061728395061728385,0,0,0.061728395061728385,0,0)" xlink:href="#aF"/><use transform="matrix(0.061728395061728385,0,0,0.061728395061728385,18.456790123456788,0)" xlink:href="#ak"/><use transform="matrix(0.061728395061728385,0,0,0.061728395061728385,23.33333333333333,0)" xlink:href="#aG"/><use transform="matrix(0.061728395061728385,0,0,0.061728395061728385,34.444444444444436,0)" xlink:href="#aH"/><use transform="matrix(0.061728395061728385,0,0,0.061728395061728385,46.79012345679011,0)" xlink:href="#aI"/><use transform="matrix(0.061728395061728385,0,0,0.061728395061728385,54.13580246913579,0)" xlink:href="#aJ"/><use transform="matrix(0.061728395061728385,0,0,0.061728395061728385,61.48148148148147,0)" xlink:href="#al"/><use transform="matrix(0.061728395061728385,0,0,0.061728395061728385,72.59259259259258,0)" xlink:href="#aH"/><use transform="matrix(0.061728395061728385,0,0,0.061728395061728385,84.93827160493825,0)" xlink:href="#am"/><use transform="matrix(0.061728395061728385,0,0,0.061728395061728385,91.11111111111109,0)" xlink:href="#am"/><use transform="matrix(0.061728395061728385,0,0,0.061728395061728385,97.28395061728392,0)" xlink:href="#an"/><use transform="matrix(0.061728395061728385,0,0,0.061728395061728385,102.16049382716047,0)" xlink:href="#aH"/><use transform="matrix(0.061728395061728385,0,0,0.061728395061728385,114.50617283950615,0)" xlink:href="#aI"/></g><path fill="#4c535d" d="M205 0l-28-72H64L36 0H1l101-248h38L239 0h-34zm-38-99l-47-123c-12 45-31 82-46 123h93" id="aK"/><path fill="#4c535d" d="M177-190C167-65 218 103 67 71c-23-6-38-20-44-43l32-5c15 47 100 32 89-28v-30C133-14 115 1 83 1 29 1 15-40 15-95c0-56 16-97 71-98 29-1 48 16 59 35 1-10 0-23 2-32h30zM94-22c36 0 50-32 50-73 0-42-14-75-50-75-39 0-46 34-46 75s6 73 46 73" id="aL"/><path fill="#4c535d" d="M85-194c31 0 48 13 60 33l-1-100h32l1 261h-30c-2-10 0-23-3-31C134-8 116 4 85 4 32 4 16-35 15-94c0-66 23-100 70-100zm9 24c-40 0-46 34-46 75 0 40 6 74 45 74 42 0 51-32 51-76 0-42-9-74-50-73" id="aM"/><g id="m"><use transform="matrix(0.061728395061728385,0,0,0.061728395061728385,0,0)" xlink:href="#aK"/><use transform="matrix(0.061728395061728385,0,0,0.061728395061728385,14.814814814814813,0)" xlink:href="#aL"/><use transform="matrix(0.061728395061728385,0,0,0.061728395061728385,27.16049382716049,0)" xlink:href="#ak"/><use transform="matrix(0.061728395061728385,0,0,0.061728395061728385,32.03703703703703,0)" xlink:href="#am"/><use transform="matrix(0.061728395061728385,0,0,0.061728395061728385,38.20987654320987,0)" xlink:href="#ao"/><use transform="matrix(0.061728395061728385,0,0,0.061728395061728385,50.55555555555555,0)" xlink:href="#am"/><use transform="matrix(0.061728395061728385,0,0,0.061728395061728385,56.72839506172839,0)" xlink:href="#aH"/><use transform="matrix(0.061728395061728385,0,0,0.061728395061728385,69.07407407407408,0)" xlink:href="#aM"/></g><path fill="#4c535d" d="M115-194c53 0 69 39 70 98 0 66-23 100-70 100C84 3 66-7 56-30L54 0H23l1-261h32v101c10-23 28-34 59-34zm-8 174c40 0 45-34 45-75 0-40-5-75-45-74-42 0-51 32-51 76 0 43 10 73 51 73" id="aN"/><path fill="#4c535d" d="M96-169c-40 0-48 33-48 73s9 75 48 75c24 0 41-14 43-38l32 2c-6 37-31 61-74 61-59 0-76-41-82-99-10-93 101-131 147-64 4 7 5 14 7 22l-32 3c-4-21-16-35-41-35" id="aO"/><g id="n"><use transform="matrix(0.061728395061728385,0,0,0.061728395061728385,0,0)" xlink:href="#aN"/><use transform="matrix(0.061728395061728385,0,0,0.061728395061728385,12.345679012345677,0)" xlink:href="#ak"/><use transform="matrix(0.061728395061728385,0,0,0.061728395061728385,17.22222222222222,0)" xlink:href="#ap"/><use transform="matrix(0.061728395061728385,0,0,0.061728395061728385,29.5679012345679,0)" xlink:href="#aI"/><use transform="matrix(0.061728395061728385,0,0,0.061728395061728385,36.913580246913575,0)" xlink:href="#aH"/><use transform="matrix(0.061728395061728385,0,0,0.061728395061728385,49.25925925925925,0)" xlink:href="#ao"/><use transform="matrix(0.061728395061728385,0,0,0.061728395061728385,61.60493827160493,0)" xlink:href="#aO"/><use transform="matrix(0.061728395061728385,0,0,0.061728395061728385,72.71604938271604,0)" xlink:href="#am"/><use transform="matrix(0.061728395061728385,0,0,0.061728395061728385,78.88888888888887,0)" xlink:href="#ap"/><use transform="matrix(0.061728395061728385,0,0,0.061728395061728385,91.23456790123456,0)" xlink:href="#aI"/></g><path d="M266 0h-40l-56-210L115 0H75L2-248h35L96-30l15-64 43-154h32l59 218 59-218h35" id="aP"/><path d="M135-143c-3-34-86-38-87 0 15 53 115 12 119 90S17 21 10-45l28-5c4 36 97 45 98 0-10-56-113-15-118-90-4-57 82-63 122-42 12 7 21 19 24 35" id="aQ"/><path d="M206 0h-36l-40-164L89 0H53L-1-190h32L70-26l43-164h34l41 164 42-164h31" id="aR"/><g id="o"><use transform="matrix(0.04938271604938272,0,0,0.04938271604938272,0,0)" xlink:href="#aP"/><use transform="matrix(0.04938271604938272,0,0,0.04938271604938272,16.098765432098766,0)" xlink:href="#ah"/><use transform="matrix(0.04938271604938272,0,0,0.04938271604938272,25.97530864197531,0)" xlink:href="#aQ"/><use transform="matrix(0.04938271604938272,0,0,0.04938271604938272,34.8641975308642,0)" xlink:href="#aw"/><use transform="matrix(0.04938271604938272,0,0,0.04938271604938272,39.802469135802475,0)" xlink:href="#ab"/><use transform="matrix(0.04938271604938272,0,0,0.04938271604938272,49.67901234567902,0)" xlink:href="#aR"/><use transform="matrix(0.04938271604938272,0,0,0.04938271604938272,62.469135802469154,0)" xlink:href="#ah"/><use transform="matrix(0.04938271604938272,0,0,0.04938271604938272,72.3456790123457,0)" xlink:href="#aw"/><use transform="matrix(0.04938271604938272,0,0,0.04938271604938272,77.28395061728398,0)" xlink:href="#ab"/><use transform="matrix(0.04938271604938272,0,0,0.04938271604938272,87.16049382716052,0)" xlink:href="#at"/></g><path d="M234-2c-28 10-62 0-77-18C117 19 8 12 13-65c3-43 29-61 60-76-25-40-17-114 47-108 35 3 59 15 59 50 0 44-40 53-71 69 14 26 32 50 51 72 14-21 24-43 30-72l26 8c-9 33-21 57-38 82 13 13 33 22 57 15v23zM97-151c25-10 52-18 56-48-1-18-13-29-33-29-42 0-39 50-23 77zM42-66c-3 51 71 58 98 28-20-24-41-51-56-80-23 10-40 24-42 52" id="aS"/><use transform="matrix(0.04938271604938272,0,0,0.04938271604938272,0,0)" xlink:href="#aS" id="p"/><path d="M210-169c-67 3-38 105-44 169h-31v-121c0-29-5-50-35-48C34-165 62-65 56 0H25l-1-190h30c1 10-1 24 2 32 10-44 99-50 107 0 11-21 27-35 58-36 85-2 47 119 55 194h-31v-121c0-29-5-49-35-48" id="aT"/><g id="q"><use transform="matrix(0.04938271604938272,0,0,0.04938271604938272,0,0)" xlink:href="#ac"/><use transform="matrix(0.04938271604938272,0,0,0.04938271604938272,8.88888888888889,0)" xlink:href="#ab"/><use transform="matrix(0.04938271604938272,0,0,0.04938271604938272,18.765432098765434,0)" xlink:href="#ae"/><use transform="matrix(0.04938271604938272,0,0,0.04938271604938272,22.666666666666668,0)" xlink:href="#ae"/><use transform="matrix(0.04938271604938272,0,0,0.04938271604938272,26.567901234567902,0)" xlink:href="#aT"/><use transform="matrix(0.04938271604938272,0,0,0.04938271604938272,41.333333333333336,0)" xlink:href="#ah"/><use transform="matrix(0.04938271604938272,0,0,0.04938271604938272,51.20987654320988,0)" xlink:href="#aQ"/><use transform="matrix(0.04938271604938272,0,0,0.04938271604938272,60.09876543209877,0)" xlink:href="#aQ"/></g><path d="M30-248c87 1 191-15 191 75 0 78-77 80-158 76V0H30v-248zm33 125c57 0 124 11 124-50 0-59-68-47-124-48v98" id="aU"/><path d="M84 4C-5 8 30-112 23-190h32v120c0 31 7 50 39 49 72-2 45-101 50-169h31l1 190h-30c-1-10 1-25-2-33-11 22-28 36-60 37" id="aV"/><g id="r"><use transform="matrix(0.04938271604938272,0,0,0.04938271604938272,0,0)" xlink:href="#aU"/><use transform="matrix(0.04938271604938272,0,0,0.04938271604938272,11.851851851851853,0)" xlink:href="#at"/><use transform="matrix(0.04938271604938272,0,0,0.04938271604938272,17.728395061728396,0)" xlink:href="#av"/><use transform="matrix(0.04938271604938272,0,0,0.04938271604938272,27.60493827160494,0)" xlink:href="#az"/><use transform="matrix(0.04938271604938272,0,0,0.04938271604938272,37.48148148148148,0)" xlink:href="#aV"/><use transform="matrix(0.04938271604938272,0,0,0.04938271604938272,47.358024691358025,0)" xlink:href="#ac"/><use transform="matrix(0.04938271604938272,0,0,0.04938271604938272,56.246913580246904,0)" xlink:href="#aw"/></g><path fill="#4c535d" d="M101-234c-31-9-42 10-38 44h38v23H63V0H32v-167H5v-23h27c-7-52 17-82 69-68v24" id="aW"/><g id="s"><use transform="matrix(0.061728395061728385,0,0,0.061728395061728385,0,0)" xlink:href="#aK"/><use transform="matrix(0.061728395061728385,0,0,0.061728395061728385,14.814814814814813,0)" xlink:href="#ak"/><use transform="matrix(0.061728395061728385,0,0,0.061728395061728385,19.691358024691354,0)" xlink:href="#aI"/><use transform="matrix(0.061728395061728385,0,0,0.061728395061728385,27.03703703703703,0)" xlink:href="#aJ"/><use transform="matrix(0.061728395061728385,0,0,0.061728395061728385,34.38271604938271,0)" xlink:href="#an"/><use transform="matrix(0.061728395061728385,0,0,0.061728395061728385,39.25925925925925,0)" xlink:href="#ak"/><use transform="matrix(0.061728395061728385,0,0,0.061728395061728385,44.1358024691358,0)" xlink:href="#aW"/><use transform="matrix(0.061728395061728385,0,0,0.061728395061728385,50.30864197530863,0)" xlink:href="#am"/></g><g id="t"><use transform="matrix(0.04938271604938272,0,0,0.04938271604938272,0,0)" xlink:href="#aE"/><use transform="matrix(0.04938271604938272,0,0,0.04938271604938272,12.790123456790125,0)" xlink:href="#aC"/></g><path d="M190 0L58-211 59 0H30v-248h39L202-35l-2-213h31V0h-41" id="aX"/><path d="M68-38c1 34 0 65-14 84H32c9-13 17-26 17-46H33v-38h35" id="aY"/><g id="u"><use transform="matrix(0.04938271604938272,0,0,0.04938271604938272,0,0)" xlink:href="#aX"/><use transform="matrix(0.034567901234567905,0,0,0.034567901234567905,12.790123456790125,2.488888888888889)" xlink:href="#aC"/><use transform="matrix(0.04938271604938272,0,0,0.04938271604938272,19.703703703703706,0)" xlink:href="#aY"/></g><g id="v"><use transform="matrix(0.04938271604938272,0,0,0.04938271604938272,0,0)" xlink:href="#aB"/><use transform="matrix(0.034567901234567905,0,0,0.034567901234567905,13.827160493827162,2.488888888888889)" xlink:href="#aC"/><use transform="matrix(0.04938271604938272,0,0,0.04938271604938272,20.74074074074074,0)" xlink:href="#aY"/></g><g id="w"><use transform="matrix(0.04938271604938272,0,0,0.04938271604938272,0,0)" xlink:href="#at"/><use transform="matrix(0.04938271604938272,0,0,0.04938271604938272,5.8765432098765435,0)" xlink:href="#ab"/><use transform="matrix(0.04938271604938272,0,0,0.04938271604938272,15.753086419753087,0)" xlink:href="#aQ"/><use transform="matrix(0.04938271604938272,0,0,0.04938271604938272,24.641975308641978,0)" xlink:href="#as"/><use transform="matrix(0.04938271604938272,0,0,0.04938271604938272,28.543209876543212,0)" xlink:href="#az"/><use transform="matrix(0.04938271604938272,0,0,0.04938271604938272,38.41975308641976,0)" xlink:href="#aV"/><use transform="matrix(0.04938271604938272,0,0,0.04938271604938272,48.296296296296305,0)" xlink:href="#ah"/><use transform="matrix(0.04938271604938272,0,0,0.04938271604938272,58.17283950617284,0)" xlink:href="#ae"/></g><path d="M0 4l72-265h28L28 4H0" id="aZ"/><g id="x"><use transform="matrix(0.04938271604938272,0,0,0.04938271604938272,0,0)" xlink:href="#aE"/><use transform="matrix(0.034567901234567905,0,0,0.034567901234567905,12.790123456790125,2.488888888888889)" xlink:href="#aC"/><use transform="matrix(0.04938271604938272,0,0,0.04938271604938272,19.703703703703706,0)" xlink:href="#aZ"/><use transform="matrix(0.04938271604938272,0,0,0.04938271604938272,24.641975308641978,0)" xlink:href="#aA"/><use transform="matrix(0.04938271604938272,0,0,0.04938271604938272,37.4320987654321,0)" xlink:href="#aB"/><use transform="matrix(0.034567901234567905,0,0,0.034567901234567905,51.25925925925927,2.488888888888889)" xlink:href="#aC"/></g><g id="y"><use transform="matrix(0.04938271604938272,0,0,0.04938271604938272,0,0)" xlink:href="#ac"/><use transform="matrix(0.04938271604938272,0,0,0.04938271604938272,8.88888888888889,0)" xlink:href="#ab"/><use transform="matrix(0.04938271604938272,0,0,0.04938271604938272,18.765432098765434,0)" xlink:href="#ae"/><use transform="matrix(0.04938271604938272,0,0,0.04938271604938272,22.666666666666668,0)" xlink:href="#ae"/><use transform="matrix(0.04938271604938272,0,0,0.04938271604938272,26.567901234567902,0)" xlink:href="#aT"/><use transform="matrix(0.04938271604938272,0,0,0.04938271604938272,41.333333333333336,0)" xlink:href="#ah"/><use transform="matrix(0.04938271604938272,0,0,0.04938271604938272,51.20987654320988,0)" xlink:href="#aQ"/><use transform="matrix(0.04938271604938272,0,0,0.04938271604938272,60.09876543209877,0)" xlink:href="#aQ"/></g><g id="z"><use transform="matrix(0.04938271604938272,0,0,0.04938271604938272,0,0)" xlink:href="#at"/><use transform="matrix(0.04938271604938272,0,0,0.04938271604938272,5.8765432098765435,0)" xlink:href="#ab"/><use transform="matrix(0.04938271604938272,0,0,0.04938271604938272,15.753086419753087,0)" xlink:href="#ac"/><use transform="matrix(0.04938271604938272,0,0,0.04938271604938272,24.641975308641978,0)" xlink:href="#ad"/><use transform="matrix(0.04938271604938272,0,0,0.04938271604938272,33.53086419753087,0)" xlink:href="#ac"/><use transform="matrix(0.04938271604938272,0,0,0.04938271604938272,42.41975308641976,0)" xlink:href="#ae"/><use transform="matrix(0.04938271604938272,0,0,0.04938271604938272,46.320987654320994,0)" xlink:href="#ab"/></g><path fill="#4c535d" d="M212-179c-10-28-35-45-73-45-59 0-87 40-87 99 0 60 29 101 89 101 43 0 62-24 78-52l27 14C228-24 195 4 139 4 59 4 22-46 18-125c-6-104 99-153 187-111 19 9 31 26 39 46" id="ba"/><path fill="#4c535d" d="M84 4C-5 8 30-112 23-190h32v120c0 31 7 50 39 49 72-2 45-101 50-169h31l1 190h-30c-1-10 1-25-2-33-11 22-28 36-60 37" id="bb"/><g id="A"><use transform="matrix(0.061728395061728385,0,0,0.061728395061728385,0,0)" xlink:href="#ba"/><use transform="matrix(0.061728395061728385,0,0,0.061728395061728385,15.987654320987652,0)" xlink:href="#aH"/><use transform="matrix(0.061728395061728385,0,0,0.061728395061728385,28.33333333333333,0)" xlink:href="#aq"/><use transform="matrix(0.061728395061728385,0,0,0.061728395061728385,40.679012345679006,0)" xlink:href="#am"/><use transform="matrix(0.061728395061728385,0,0,0.061728395061728385,46.85185185185185,0)" xlink:href="#aI"/><use transform="matrix(0.061728395061728385,0,0,0.061728395061728385,54.197530864197525,0)" xlink:href="#ak"/><use transform="matrix(0.061728395061728385,0,0,0.061728395061728385,59.07407407407407,0)" xlink:href="#aW"/><use transform="matrix(0.061728395061728385,0,0,0.061728395061728385,65.24691358024691,0)" xlink:href="#bb"/><use transform="matrix(0.061728395061728385,0,0,0.061728395061728385,77.59259259259258,0)" xlink:href="#aL"/><use transform="matrix(0.061728395061728385,0,0,0.061728395061728385,89.93827160493825,0)" xlink:href="#aH"/></g><path d="M115-194c53 0 69 39 70 98 0 66-23 100-70 100C84 3 66-7 56-30L54 0H23l1-261h32v101c10-23 28-34 59-34zm-8 174c40 0 45-34 45-75 0-40-5-75-45-74-42 0-51 32-51 76 0 43 10 73 51 73" id="bc"/><g id="B"><use transform="matrix(0.04938271604938272,0,0,0.04938271604938272,0,0)" xlink:href="#bc"/><use transform="matrix(0.04938271604938272,0,0,0.04938271604938272,9.876543209876544,0)" xlink:href="#at"/><use transform="matrix(0.04938271604938272,0,0,0.04938271604938272,15.753086419753087,0)" xlink:href="#av"/><use transform="matrix(0.04938271604938272,0,0,0.04938271604938272,25.629629629629633,0)" xlink:href="#aw"/><use transform="matrix(0.04938271604938272,0,0,0.04938271604938272,30.567901234567906,0)" xlink:href="#af"/></g><path d="M63-220v92h138v28H63V0H30v-248h175v28H63" id="bd"/><g id="C"><use transform="matrix(0.04938271604938272,0,0,0.04938271604938272,0,0)" xlink:href="#bd"/><use transform="matrix(0.04938271604938272,0,0,0.04938271604938272,10.814814814814815,0)" xlink:href="#ae"/><use transform="matrix(0.04938271604938272,0,0,0.04938271604938272,14.71604938271605,0)" xlink:href="#aV"/><use transform="matrix(0.04938271604938272,0,0,0.04938271604938272,24.592592592592595,0)" xlink:href="#ab"/></g><path d="M177-190C167-65 218 103 67 71c-23-6-38-20-44-43l32-5c15 47 100 32 89-28v-30C133-14 115 1 83 1 29 1 15-40 15-95c0-56 16-97 71-98 29-1 48 16 59 35 1-10 0-23 2-32h30zM94-22c36 0 50-32 50-73 0-42-14-75-50-75-39 0-46 34-46 75s6 73 46 73" id="be"/><g id="D"><use transform="matrix(0.04938271604938272,0,0,0.04938271604938272,0,0)" xlink:href="#be"/><use transform="matrix(0.04938271604938272,0,0,0.04938271604938272,9.876543209876544,0)" xlink:href="#ah"/><use transform="matrix(0.04938271604938272,0,0,0.04938271604938272,19.75308641975309,0)" xlink:href="#aQ"/></g><path fill="#60c1cf" d="M199 0l-22-63H83L61 0H9l90-248h61L250 0h-51zm-33-102l-36-108c-10 38-24 72-36 108h72" id="bf"/><path fill="#60c1cf" d="M190-63c-7 42-38 67-86 67-59 0-84-38-90-98-12-110 154-137 174-36l-49 2c-2-19-15-32-35-32-30 0-35 28-38 64-6 74 65 87 74 30" id="bg"/><path fill="#60c1cf" d="M185-48c-13 30-37 53-82 52C43 2 14-33 14-96s30-98 90-98c62 0 83 45 84 108H66c0 31 8 55 39 56 18 0 30-7 34-22zm-45-69c5-46-57-63-70-21-2 6-4 13-4 21h74" id="bh"/><path fill="#60c1cf" d="M115-3C79 11 28 4 28-45v-112H4v-33h27l15-45h31v45h36v33H77v99c-1 23 16 31 38 25v30" id="bi"/><path fill="#60c1cf" d="M133-34C117-15 103 5 69 4 32 3 11-16 11-54c-1-60 55-63 116-61 1-26-3-47-28-47-18 1-26 9-28 27l-52-2c7-38 36-58 82-57s74 22 75 68l1 82c-1 14 12 18 25 15v27c-30 8-71 5-69-32zm-48 3c29 0 43-24 42-57-32 0-66-3-65 30 0 17 8 27 23 27" id="bj"/><path fill="#60c1cf" d="M14-72v-43h91v43H14" id="bk"/><path fill="#60c1cf" d="M121-226c-27-7-43 5-38 36h38v33H83V0H34v-157H6v-33h28c-9-59 32-81 87-68v32" id="bl"/><path fill="#60c1cf" d="M88-194c31-1 46 15 58 34l-1-101h50l1 261h-48c-2-10 0-23-3-31C134-8 116 4 84 4 32 4 16-41 15-95c0-56 19-97 73-99zm17 164c33 0 40-30 41-66 1-37-9-64-41-64s-38 30-39 65c0 43 13 65 39 65" id="bm"/><g id="E"><use transform="matrix(0.061728395061728385,0,0,0.061728395061728385,0,0)" xlink:href="#bf"/><use transform="matrix(0.061728395061728385,0,0,0.061728395061728385,15.987654320987652,0)" xlink:href="#bg"/><use transform="matrix(0.061728395061728385,0,0,0.061728395061728385,28.33333333333333,0)" xlink:href="#bh"/><use transform="matrix(0.061728395061728385,0,0,0.061728395061728385,40.679012345679006,0)" xlink:href="#bi"/><use transform="matrix(0.061728395061728385,0,0,0.061728395061728385,48.02469135802468,0)" xlink:href="#bj"/><use transform="matrix(0.061728395061728385,0,0,0.061728395061728385,60.37037037037036,0)" xlink:href="#bi"/><use transform="matrix(0.061728395061728385,0,0,0.061728395061728385,67.71604938271604,0)" xlink:href="#bh"/><use transform="matrix(0.061728395061728385,0,0,0.061728395061728385,80.06172839506172,0)" xlink:href="#bk"/><use transform="matrix(0.061728395061728385,0,0,0.061728395061728385,87.4074074074074,0)" xlink:href="#bl"/><use transform="matrix(0.061728395061728385,0,0,0.061728395061728385,94.75308641975309,0)" xlink:href="#bh"/><use transform="matrix(0.061728395061728385,0,0,0.061728395061728385,107.09876543209876,0)" xlink:href="#bm"/></g><path fill="#60c1cf" d="M137-138c1-29-70-34-71-4 15 46 118 7 119 86 1 83-164 76-172 9l43-7c4 19 20 25 44 25 33 8 57-30 24-41C81-84 22-81 20-136c-2-80 154-74 161-7" id="bn"/><g id="F"><use transform="matrix(0.061728395061728385,0,0,0.061728395061728385,0,0)" xlink:href="#bn"/><use transform="matrix(0.061728395061728385,0,0,0.061728395061728385,12.345679012345677,0)" xlink:href="#bh"/><use transform="matrix(0.061728395061728385,0,0,0.061728395061728385,24.691358024691354,0)" xlink:href="#bh"/><use transform="matrix(0.061728395061728385,0,0,0.061728395061728385,37.03703703703703,0)" xlink:href="#bm"/></g><path fill="#60c1cf" d="M135-150c-39-12-60 13-60 57V0H25l-1-190h47c2 13-1 29 3 40 6-28 27-53 61-41v41" id="bo"/><path fill="#60c1cf" d="M25-224v-37h50v37H25zM25 0v-190h50V0H25" id="bp"/><path fill="#60c1cf" d="M135-194c87-1 58 113 63 194h-50c-7-57 23-157-34-157-59 0-34 97-39 157H25l-1-190h47c2 12-1 28 3 38 12-26 28-41 61-42" id="bq"/><g id="G"><use transform="matrix(0.061728395061728385,0,0,0.061728395061728385,0,0)" xlink:href="#bi"/><use transform="matrix(0.061728395061728385,0,0,0.061728395061728385,7.345679012345678,0)" xlink:href="#bo"/><use transform="matrix(0.061728395061728385,0,0,0.061728395061728385,15.987654320987652,0)" xlink:href="#bj"/><use transform="matrix(0.061728395061728385,0,0,0.061728395061728385,28.33333333333333,0)" xlink:href="#bp"/><use transform="matrix(0.061728395061728385,0,0,0.061728395061728385,34.50617283950616,0)" xlink:href="#bq"/></g><path fill="#60c1cf" d="M185-189c-5-48-123-54-124 2 14 75 158 14 163 119 3 78-121 87-175 55-17-10-28-26-33-46l33-7c5 56 141 63 141-1 0-78-155-14-162-118-5-82 145-84 179-34 5 7 8 16 11 25" id="br"/><path fill="#60c1cf" d="M100-194c63 0 86 42 84 106H49c0 40 14 67 53 68 26 1 43-12 49-29l28 8c-11 28-37 45-77 45C44 4 14-33 15-96c1-61 26-98 85-98zm52 81c6-60-76-77-97-28-3 7-6 17-6 28h103" id="bs"/><path fill="#60c1cf" d="M85-194c31 0 48 13 60 33l-1-100h32l1 261h-30c-2-10 0-23-3-31C134-8 116 4 85 4 32 4 16-35 15-94c0-66 23-100 70-100zm9 24c-40 0-46 34-46 75 0 40 6 74 45 74 42 0 51-32 51-76 0-42-9-74-50-73" id="bt"/><g id="H"><use transform="matrix(0.05555555555555555,0,0,0.05555555555555555,0,0)" xlink:href="#br"/><use transform="matrix(0.05555555555555555,0,0,0.05555555555555555,13.333333333333332,0)" xlink:href="#bs"/><use transform="matrix(0.05555555555555555,0,0,0.05555555555555555,24.444444444444443,0)" xlink:href="#bs"/><use transform="matrix(0.05555555555555555,0,0,0.05555555555555555,35.55555555555556,0)" xlink:href="#bt"/></g><path fill="#60c1cf" d="M30-248c118-7 216 8 213 122C240-48 200 0 122 0H30v-248zM63-27c89 8 146-16 146-99s-60-101-146-95v194" id="bu"/><path fill="#60c1cf" d="M24-231v-30h32v30H24zM24 0v-190h32V0H24" id="bv"/><path fill="#60c1cf" d="M24 0v-261h32V0H24" id="bw"/><path fill="#60c1cf" d="M84 4C-5 8 30-112 23-190h32v120c0 31 7 50 39 49 72-2 45-101 50-169h31l1 190h-30c-1-10 1-25-2-33-11 22-28 36-60 37" id="bx"/><path fill="#60c1cf" d="M59-47c-2 24 18 29 38 22v24C64 9 27 4 27-40v-127H5v-23h24l9-43h21v43h35v23H59v120" id="by"/><g id="I"><use transform="matrix(0.05555555555555555,0,0,0.05555555555555555,0,0)" xlink:href="#bu"/><use transform="matrix(0.05555555555555555,0,0,0.05555555555555555,14.388888888888888,0)" xlink:href="#bv"/><use transform="matrix(0.05555555555555555,0,0,0.05555555555555555,18.777777777777775,0)" xlink:href="#bw"/><use transform="matrix(0.05555555555555555,0,0,0.05555555555555555,23.166666666666664,0)" xlink:href="#bx"/><use transform="matrix(0.05555555555555555,0,0,0.05555555555555555,34.27777777777777,0)" xlink:href="#by"/><use transform="matrix(0.05555555555555555,0,0,0.05555555555555555,39.83333333333333,0)" xlink:href="#bs"/></g><path fill="#60c1cf" d="M205 0l-28-72H64L36 0H1l101-248h38L239 0h-34zm-38-99l-47-123c-12 45-31 82-46 123h93" id="bz"/><path fill="#60c1cf" d="M96-169c-40 0-48 33-48 73s9 75 48 75c24 0 41-14 43-38l32 2c-6 37-31 61-74 61-59 0-76-41-82-99-10-93 101-131 147-64 4 7 5 14 7 22l-32 3c-4-21-16-35-41-35" id="bA"/><path fill="#60c1cf" d="M140-251c81 0 123 46 123 126C263-46 219 4 140 4 59 4 17-45 17-125s42-126 123-126zm0 227c63 0 89-41 89-101s-29-99-89-99c-61 0-89 39-89 99S79-25 140-24" id="bB"/><path fill="#60c1cf" d="M197 0v-115H63V0H30v-248h33v105h134v-105h34V0h-34" id="bC"/><g id="J"><use transform="matrix(0.05555555555555555,0,0,0.05555555555555555,0,0)" xlink:href="#bz"/><use transform="matrix(0.05555555555555555,0,0,0.05555555555555555,13.333333333333332,0)" xlink:href="#bA"/><use transform="matrix(0.05555555555555555,0,0,0.05555555555555555,23.333333333333332,0)" xlink:href="#bB"/><use transform="matrix(0.05555555555555555,0,0,0.05555555555555555,38.888888888888886,0)" xlink:href="#bC"/></g><path fill="#ed586f" d="M67-125c0 54 23 88 75 88 28 0 53-7 68-21v-34h-60v-39h108v91C232-14 192 4 140 4 58 4 20-42 15-125 8-236 126-280 215-234c19 10 29 26 37 47l-47 15c-11-23-29-39-63-39-53 1-75 33-75 86" id="bD"/><path fill="#ed586f" d="M25 0v-261h50V0H25" id="bE"/><path fill="#ed586f" d="M85 4C-2 5 27-109 22-190h50c7 57-23 150 33 157 60-5 35-97 40-157h50l1 190h-47c-2-12 1-28-3-38-12 25-28 42-61 42" id="bF"/><path fill="#ed586f" d="M190-63c-7 42-38 67-86 67-59 0-84-38-90-98-12-110 154-137 174-36l-49 2c-2-19-15-32-35-32-30 0-35 28-38 64-6 74 65 87 74 30" id="bG"/><path fill="#ed586f" d="M110-194c64 0 96 36 96 99 0 64-35 99-97 99-61 0-95-36-95-99 0-62 34-99 96-99zm-1 164c35 0 45-28 45-65 0-40-10-65-43-65-34 0-45 26-45 65 0 36 10 65 43 65" id="bH"/><path fill="#ed586f" d="M137-138c1-29-70-34-71-4 15 46 118 7 119 86 1 83-164 76-172 9l43-7c4 19 20 25 44 25 33 8 57-30 24-41C81-84 22-81 20-136c-2-80 154-74 161-7" id="bI"/><path fill="#ed586f" d="M185-48c-13 30-37 53-82 52C43 2 14-33 14-96s30-98 90-98c62 0 83 45 84 108H66c0 31 8 55 39 56 18 0 30-7 34-22zm-45-69c5-46-57-63-70-21-2 6-4 13-4 21h74" id="bJ"/><path fill="#ed586f" d="M14-72v-43h91v43H14" id="bK"/><path fill="#ed586f" d="M121-226c-27-7-43 5-38 36h38v33H83V0H34v-157H6v-33h28c-9-59 32-81 87-68v32" id="bL"/><path fill="#ed586f" d="M88-194c31-1 46 15 58 34l-1-101h50l1 261h-48c-2-10 0-23-3-31C134-8 116 4 84 4 32 4 16-41 15-95c0-56 19-97 73-99zm17 164c33 0 40-30 41-66 1-37-9-64-41-64s-38 30-39 65c0 43 13 65 39 65" id="bM"/><g id="K"><use transform="matrix(0.061728395061728385,0,0,0.061728395061728385,0,0)" xlink:href="#bD"/><use transform="matrix(0.061728395061728385,0,0,0.061728395061728385,17.28395061728395,0)" xlink:href="#bE"/><use transform="matrix(0.061728395061728385,0,0,0.061728395061728385,23.456790123456788,0)" xlink:href="#bF"/><use transform="matrix(0.061728395061728385,0,0,0.061728395061728385,36.9753086419753,0)" xlink:href="#bG"/><use transform="matrix(0.061728395061728385,0,0,0.061728395061728385,49.32098765432098,0)" xlink:href="#bH"/><use transform="matrix(0.061728395061728385,0,0,0.061728395061728385,62.83950617283949,0)" xlink:href="#bI"/><use transform="matrix(0.061728395061728385,0,0,0.061728395061728385,75.18518518518516,0)" xlink:href="#bJ"/><use transform="matrix(0.061728395061728385,0,0,0.061728395061728385,87.53086419753083,0)" xlink:href="#bK"/><use transform="matrix(0.061728395061728385,0,0,0.061728395061728385,94.87654320987652,0)" xlink:href="#bL"/><use transform="matrix(0.061728395061728385,0,0,0.061728395061728385,102.2222222222222,0)" xlink:href="#bJ"/><use transform="matrix(0.061728395061728385,0,0,0.061728395061728385,114.56790123456787,0)" xlink:href="#bM"/></g><g id="L"><use transform="matrix(0.061728395061728385,0,0,0.061728395061728385,0,0)" xlink:href="#bI"/><use transform="matrix(0.061728395061728385,0,0,0.061728395061728385,12.345679012345677,0)" xlink:href="#bJ"/><use transform="matrix(0.061728395061728385,0,0,0.061728395061728385,24.691358024691354,0)" xlink:href="#bJ"/><use transform="matrix(0.061728395061728385,0,0,0.061728395061728385,37.03703703703703,0)" xlink:href="#bM"/></g><path fill="#ed586f" d="M115-3C79 11 28 4 28-45v-112H4v-33h27l15-45h31v45h36v33H77v99c-1 23 16 31 38 25v30" id="bN"/><path fill="#ed586f" d="M135-150c-39-12-60 13-60 57V0H25l-1-190h47c2 13-1 29 3 40 6-28 27-53 61-41v41" id="bO"/><path fill="#ed586f" d="M133-34C117-15 103 5 69 4 32 3 11-16 11-54c-1-60 55-63 116-61 1-26-3-47-28-47-18 1-26 9-28 27l-52-2c7-38 36-58 82-57s74 22 75 68l1 82c-1 14 12 18 25 15v27c-30 8-71 5-69-32zm-48 3c29 0 43-24 42-57-32 0-66-3-65 30 0 17 8 27 23 27" id="bP"/><path fill="#ed586f" d="M25-224v-37h50v37H25zM25 0v-190h50V0H25" id="bQ"/><path fill="#ed586f" d="M135-194c87-1 58 113 63 194h-50c-7-57 23-157-34-157-59 0-34 97-39 157H25l-1-190h47c2 12-1 28 3 38 12-26 28-41 61-42" id="bR"/><g id="M"><use transform="matrix(0.061728395061728385,0,0,0.061728395061728385,0,0)" xlink:href="#bN"/><use transform="matrix(0.061728395061728385,0,0,0.061728395061728385,7.345679012345678,0)" xlink:href="#bO"/><use transform="matrix(0.061728395061728385,0,0,0.061728395061728385,15.987654320987652,0)" xlink:href="#bP"/><use transform="matrix(0.061728395061728385,0,0,0.061728395061728385,28.33333333333333,0)" xlink:href="#bQ"/><use transform="matrix(0.061728395061728385,0,0,0.061728395061728385,34.50617283950616,0)" xlink:href="#bR"/></g><g id="N"><use transform="matrix(0.06172839506172839,0,0,0.06172839506172839,0,0)" xlink:href="#bd"/><use transform="matrix(0.06172839506172839,0,0,0.06172839506172839,13.518518518518517,0)" xlink:href="#ab"/><use transform="matrix(0.06172839506172839,0,0,0.06172839506172839,25.864197530864196,0)" xlink:href="#ab"/><use transform="matrix(0.06172839506172839,0,0,0.06172839506172839,38.20987654320987,0)" xlink:href="#az"/></g><path d="M185-189c-5-48-123-54-124 2 14 75 158 14 163 119 3 78-121 87-175 55-17-10-28-26-33-46l33-7c5 56 141 63 141-1 0-78-155-14-162-118-5-82 145-84 179-34 5 7 8 16 11 25" id="bS"/><g id="O"><use transform="matrix(0.06172839506172839,0,0,0.06172839506172839,0,0)" xlink:href="#bS"/><use transform="matrix(0.06172839506172839,0,0,0.06172839506172839,14.814814814814813,0)" xlink:href="#aw"/><use transform="matrix(0.06172839506172839,0,0,0.06172839506172839,20.98765432098765,0)" xlink:href="#at"/><use transform="matrix(0.06172839506172839,0,0,0.06172839506172839,28.33333333333333,0)" xlink:href="#ab"/><use transform="matrix(0.06172839506172839,0,0,0.06172839506172839,40.679012345679006,0)" xlink:href="#ah"/><use transform="matrix(0.06172839506172839,0,0,0.06172839506172839,53.02469135802468,0)" xlink:href="#aT"/></g><g id="P"><use transform="matrix(0.06172839506172839,0,0,0.06172839506172839,0,0)" xlink:href="#aU"/><use transform="matrix(0.06172839506172839,0,0,0.06172839506172839,14.814814814814813,0)" xlink:href="#at"/><use transform="matrix(0.06172839506172839,0,0,0.06172839506172839,22.160493827160494,0)" xlink:href="#av"/><use transform="matrix(0.06172839506172839,0,0,0.06172839506172839,34.50617283950617,0)" xlink:href="#az"/><use transform="matrix(0.06172839506172839,0,0,0.06172839506172839,46.85185185185185,0)" xlink:href="#aV"/><use transform="matrix(0.06172839506172839,0,0,0.06172839506172839,59.197530864197525,0)" xlink:href="#ac"/><use transform="matrix(0.06172839506172839,0,0,0.06172839506172839,70.30864197530863,0)" xlink:href="#aw"/></g><path fill="#ed586f" d="M185-189c-5-48-123-54-124 2 14 75 158 14 163 119 3 78-121 87-175 55-17-10-28-26-33-46l33-7c5 56 141 63 141-1 0-78-155-14-162-118-5-82 145-84 179-34 5 7 8 16 11 25" id="bT"/><path fill="#ed586f" d="M100-194c63 0 86 42 84 106H49c0 40 14 67 53 68 26 1 43-12 49-29l28 8c-11 28-37 45-77 45C44 4 14-33 15-96c1-61 26-98 85-98zm52 81c6-60-76-77-97-28-3 7-6 17-6 28h103" id="bU"/><path fill="#ed586f" d="M85-194c31 0 48 13 60 33l-1-100h32l1 261h-30c-2-10 0-23-3-31C134-8 116 4 85 4 32 4 16-35 15-94c0-66 23-100 70-100zm9 24c-40 0-46 34-46 75 0 40 6 74 45 74 42 0 51-32 51-76 0-42-9-74-50-73" id="bV"/><g id="Q"><use transform="matrix(0.05555555555555555,0,0,0.05555555555555555,0,0)" xlink:href="#bT"/><use transform="matrix(0.05555555555555555,0,0,0.05555555555555555,13.333333333333332,0)" xlink:href="#bU"/><use transform="matrix(0.05555555555555555,0,0,0.05555555555555555,24.444444444444443,0)" xlink:href="#bU"/><use transform="matrix(0.05555555555555555,0,0,0.05555555555555555,35.55555555555556,0)" xlink:href="#bV"/></g><path fill="#ed586f" d="M143 4C61 4 22-44 18-125c-5-107 100-154 193-111 17 8 29 25 37 43l-32 9c-13-25-37-40-76-40-61 0-88 39-88 99 0 61 29 100 91 101 35 0 62-11 79-27v-45h-74v-28h105v86C228-13 192 4 143 4" id="bW"/><path fill="#ed586f" d="M24 0v-261h32V0H24" id="bX"/><path fill="#ed586f" d="M84 4C-5 8 30-112 23-190h32v120c0 31 7 50 39 49 72-2 45-101 50-169h31l1 190h-30c-1-10 1-25-2-33-11 22-28 36-60 37" id="bY"/><path fill="#ed586f" d="M96-169c-40 0-48 33-48 73s9 75 48 75c24 0 41-14 43-38l32 2c-6 37-31 61-74 61-59 0-76-41-82-99-10-93 101-131 147-64 4 7 5 14 7 22l-32 3c-4-21-16-35-41-35" id="bZ"/><path fill="#ed586f" d="M100-194c62-1 85 37 85 99 1 63-27 99-86 99S16-35 15-95c0-66 28-99 85-99zM99-20c44 1 53-31 53-75 0-43-8-75-51-75s-53 32-53 75 10 74 51 75" id="ca"/><path fill="#ed586f" d="M135-143c-3-34-86-38-87 0 15 53 115 12 119 90S17 21 10-45l28-5c4 36 97 45 98 0-10-56-113-15-118-90-4-57 82-63 122-42 12 7 21 19 24 35" id="cb"/><g id="R"><use transform="matrix(0.04938271604938272,0,0,0.04938271604938272,0,0)" xlink:href="#bW"/><use transform="matrix(0.04938271604938272,0,0,0.04938271604938272,13.827160493827162,0)" xlink:href="#bX"/><use transform="matrix(0.04938271604938272,0,0,0.04938271604938272,17.728395061728396,0)" xlink:href="#bY"/><use transform="matrix(0.04938271604938272,0,0,0.04938271604938272,27.60493827160494,0)" xlink:href="#bZ"/><use transform="matrix(0.04938271604938272,0,0,0.04938271604938272,36.49382716049383,0)" xlink:href="#ca"/><use transform="matrix(0.04938271604938272,0,0,0.04938271604938272,46.370370370370374,0)" xlink:href="#cb"/><use transform="matrix(0.04938271604938272,0,0,0.04938271604938272,55.25925925925927,0)" xlink:href="#bU"/></g><g id="S"><use transform="matrix(0.04938271604938272,0,0,0.04938271604938272,0,0)" xlink:href="#aA"/><use transform="matrix(0.04938271604938272,0,0,0.04938271604938272,12.790123456790125,0)" xlink:href="#ab"/><use transform="matrix(0.04938271604938272,0,0,0.04938271604938272,22.66666666666667,0)" xlink:href="#ae"/><use transform="matrix(0.04938271604938272,0,0,0.04938271604938272,26.567901234567902,0)" xlink:href="#ae"/><use transform="matrix(0.04938271604938272,0,0,0.04938271604938272,30.46913580246914,0)" xlink:href="#aT"/><use transform="matrix(0.04938271604938272,0,0,0.04938271604938272,45.23456790123457,0)" xlink:href="#ah"/><use transform="matrix(0.04938271604938272,0,0,0.04938271604938272,55.111111111111114,0)" xlink:href="#aQ"/><use transform="matrix(0.04938271604938272,0,0,0.04938271604938272,64,0)" xlink:href="#aQ"/></g><path d="M240 0l2-218c-23 76-54 145-80 218h-23L58-218 59 0H30v-248h44l77 211c21-75 51-140 76-211h43V0h-30" id="cc"/><g id="T"><use transform="matrix(0.04938271604938272,0,0,0.04938271604938272,0,0)" xlink:href="#cc"/><use transform="matrix(0.04938271604938272,0,0,0.04938271604938272,14.765432098765434,0)" xlink:href="#ab"/><use transform="matrix(0.04938271604938272,0,0,0.04938271604938272,24.641975308641978,0)" xlink:href="#az"/><use transform="matrix(0.04938271604938272,0,0,0.04938271604938272,34.51851851851852,0)" xlink:href="#as"/><use transform="matrix(0.04938271604938272,0,0,0.04938271604938272,38.41975308641975,0)" xlink:href="#ah"/></g><path d="M30-248c118-7 216 8 213 122C240-48 200 0 122 0H30v-248zM63-27c89 8 146-16 146-99s-60-101-146-95v194" id="cd"/><g id="U"><use transform="matrix(0.05555555555555555,0,0,0.05555555555555555,0,0)" xlink:href="#cd"/><use transform="matrix(0.05555555555555555,0,0,0.05555555555555555,14.388888888888888,0)" xlink:href="#as"/><use transform="matrix(0.05555555555555555,0,0,0.05555555555555555,18.777777777777775,0)" xlink:href="#ae"/><use transform="matrix(0.05555555555555555,0,0,0.05555555555555555,23.166666666666664,0)" xlink:href="#aV"/><use transform="matrix(0.05555555555555555,0,0,0.05555555555555555,34.27777777777777,0)" xlink:href="#aw"/><use transform="matrix(0.05555555555555555,0,0,0.05555555555555555,39.83333333333333,0)" xlink:href="#as"/><use transform="matrix(0.05555555555555555,0,0,0.05555555555555555,44.222222222222214,0)" xlink:href="#av"/><use transform="matrix(0.05555555555555555,0,0,0.05555555555555555,55.33333333333333,0)" xlink:href="#ai"/></g><g id="V"><use transform="matrix(0.05555555555555555,0,0,0.05555555555555555,0,0)" xlink:href="#aR"/><use transform="matrix(0.05555555555555555,0,0,0.05555555555555555,14.388888888888888,0)" xlink:href="#ah"/><use transform="matrix(0.05555555555555555,0,0,0.05555555555555555,25.5,0)" xlink:href="#aw"/><use transform="matrix(0.05555555555555555,0,0,0.05555555555555555,31.05555555555556,0)" xlink:href="#ab"/><use transform="matrix(0.05555555555555555,0,0,0.05555555555555555,42.16666666666667,0)" xlink:href="#at"/></g><path fill="#60c1cf" d="M240 0l2-218c-23 76-54 145-80 218h-23L58-218 59 0H30v-248h44l77 211c21-75 51-140 76-211h43V0h-30" id="ce"/><path fill="#60c1cf" d="M141-36C126-15 110 5 73 4 37 3 15-17 15-53c-1-64 63-63 125-63 3-35-9-54-41-54-24 1-41 7-42 31l-33-3c5-37 33-52 76-52 45 0 72 20 72 64v82c-1 20 7 32 28 27v20c-31 9-61-2-59-35zM48-53c0 20 12 33 32 33 41-3 63-29 60-74-43 2-92-5-92 41" id="cf"/><g id="W"><use transform="matrix(0.04938271604938272,0,0,0.04938271604938272,0,0)" xlink:href="#ce"/><use transform="matrix(0.04938271604938272,0,0,0.04938271604938272,14.765432098765434,0)" xlink:href="#bs"/><use transform="matrix(0.04938271604938272,0,0,0.04938271604938272,24.641975308641978,0)" xlink:href="#bt"/><use transform="matrix(0.04938271604938272,0,0,0.04938271604938272,34.51851851851852,0)" xlink:href="#bv"/><use transform="matrix(0.04938271604938272,0,0,0.04938271604938272,38.41975308641975,0)" xlink:href="#cf"/></g><path fill="#ed586f" d="M30-248c118-7 216 8 213 122C240-48 200 0 122 0H30v-248zM63-27c89 8 146-16 146-99s-60-101-146-95v194" id="cg"/><path fill="#ed586f" d="M24-231v-30h32v30H24zM24 0v-190h32V0H24" id="ch"/><path fill="#ed586f" d="M59-47c-2 24 18 29 38 22v24C64 9 27 4 27-40v-127H5v-23h24l9-43h21v43h35v23H59v120" id="ci"/><g id="X"><use transform="matrix(0.05555555555555555,0,0,0.05555555555555555,0,0)" xlink:href="#cg"/><use transform="matrix(0.05555555555555555,0,0,0.05555555555555555,14.388888888888888,0)" xlink:href="#ch"/><use transform="matrix(0.05555555555555555,0,0,0.05555555555555555,18.777777777777775,0)" xlink:href="#bX"/><use transform="matrix(0.05555555555555555,0,0,0.05555555555555555,23.166666666666664,0)" xlink:href="#bY"/><use transform="matrix(0.05555555555555555,0,0,0.05555555555555555,34.27777777777777,0)" xlink:href="#ci"/><use transform="matrix(0.05555555555555555,0,0,0.05555555555555555,39.83333333333333,0)" xlink:href="#bU"/></g><path fill="#ed586f" d="M205 0l-28-72H64L36 0H1l101-248h38L239 0h-34zm-38-99l-47-123c-12 45-31 82-46 123h93" id="cj"/><path fill="#ed586f" d="M140-251c81 0 123 46 123 126C263-46 219 4 140 4 59 4 17-45 17-125s42-126 123-126zm0 227c63 0 89-41 89-101s-29-99-89-99c-61 0-89 39-89 99S79-25 140-24" id="ck"/><path fill="#ed586f" d="M197 0v-115H63V0H30v-248h33v105h134v-105h34V0h-34" id="cl"/><g id="Y"><use transform="matrix(0.05555555555555555,0,0,0.05555555555555555,0,0)" xlink:href="#cj"/><use transform="matrix(0.05555555555555555,0,0,0.05555555555555555,13.333333333333332,0)" xlink:href="#bZ"/><use transform="matrix(0.05555555555555555,0,0,0.05555555555555555,23.333333333333332,0)" xlink:href="#ck"/><use transform="matrix(0.05555555555555555,0,0,0.05555555555555555,38.888888888888886,0)" xlink:href="#cl"/></g><path fill="#ed586f" d="M240 0l2-218c-23 76-54 145-80 218h-23L58-218 59 0H30v-248h44l77 211c21-75 51-140 76-211h43V0h-30" id="cm"/><path fill="#ed586f" d="M141-36C126-15 110 5 73 4 37 3 15-17 15-53c-1-64 63-63 125-63 3-35-9-54-41-54-24 1-41 7-42 31l-33-3c5-37 33-52 76-52 45 0 72 20 72 64v82c-1 20 7 32 28 27v20c-31 9-61-2-59-35zM48-53c0 20 12 33 32 33 41-3 63-29 60-74-43 2-92-5-92 41" id="cn"/><g id="Z"><use transform="matrix(0.04938271604938272,0,0,0.04938271604938272,0,0)" xlink:href="#cm"/><use transform="matrix(0.04938271604938272,0,0,0.04938271604938272,14.765432098765434,0)" xlink:href="#bU"/><use transform="matrix(0.04938271604938272,0,0,0.04938271604938272,24.641975308641978,0)" xlink:href="#bV"/><use transform="matrix(0.04938271604938272,0,0,0.04938271604938272,34.51851851851852,0)" xlink:href="#ch"/><use transform="matrix(0.04938271604938272,0,0,0.04938271604938272,38.41975308641975,0)" xlink:href="#cn"/></g></defs></g></svg>